<mxfile host="app.diagrams.net" modified="2021-10-05T20:13:32.085Z" agent="5.0 (Windows NT 10.0; Win64; x64) AppleWebKit/537.36 (KHTML, like Gecko) Chrome/94.0.4606.71 Safari/537.36 Edg/94.0.992.38" etag="Jqk3Z5J0KBjQWu2N2cWg" version="15.4.3" type="github">
  <diagram name="Page-1" id="7a6c530e-6e37-e111-ec74-82921da8cc10">
    <mxGraphModel dx="3696" dy="1812" grid="1" gridSize="10" guides="1" tooltips="1" connect="1" arrows="0" fold="1" page="0" pageScale="1.5" pageWidth="1100" pageHeight="850" background="#184380" math="0" shadow="0">
      <root>
        <mxCell id="0" style=";html=1;" />
        <mxCell id="1" style=";html=1;" parent="0" />
        <mxCell id="8ccsj-pmKpA4-8mmTmeE-3" value="&lt;font style=&quot;font-size: 23px&quot; face=&quot;Comic Sans MS&quot;&gt;Hub Virtual Network&lt;/font&gt;" style="whiteSpace=wrap;html=1;rounded=1;shadow=1;strokeColor=#B1B6BC;strokeWidth=2;fillColor=#FFE4DB;fontSize=20;fontColor=#ffffff;align=center;arcSize=3;verticalAlign=top;spacingTop=5;horizontal=1;dashed=1;dashPattern=1 2;gradientColor=#FFBD8A;" vertex="1" parent="1">
          <mxGeometry y="70.69" width="410" height="718.62" as="geometry" />
        </mxCell>
        <mxCell id="Cm0bcH-Zk1vUnTx-EvQP-33" value="Failover&lt;br&gt;Cluster&lt;br&gt;File Servers" style="label;whiteSpace=wrap;html=1;image=img/clipart/Gear_128x128.png;fontSize=16;strokeColor=#000000;fillColor=#5A6570;" parent="1" vertex="1">
          <mxGeometry x="807" y="415" width="140" height="60" as="geometry" />
        </mxCell>
        <mxCell id="23046e2b9bb16c14-116" value="&lt;font face=&quot;Comic Sans MS&quot;&gt;&lt;span style=&quot;font-size: 22px&quot;&gt;Spoke Virtual&amp;nbsp;Network&lt;/span&gt;&lt;/font&gt;" style="whiteSpace=wrap;html=1;rounded=1;shadow=1;strokeColor=#001DBC;strokeWidth=2;fillColor=#262DEF;fontSize=20;fontColor=#ffffff;align=center;arcSize=3;verticalAlign=top;spacingTop=5;gradientColor=#3333FF;horizontal=1;" parent="1" vertex="1">
          <mxGeometry x="550" y="70" width="1210" height="718.62" as="geometry" />
        </mxCell>
        <mxCell id="NRgmB2DWNI1tFP4q7ESX-3" value="" style="edgeStyle=orthogonalEdgeStyle;rounded=0;orthogonalLoop=1;jettySize=auto;html=1;strokeColor=#FFFFFF;" parent="1" edge="1">
          <mxGeometry relative="1" as="geometry">
            <mxPoint x="1221" y="372.5" as="targetPoint" />
            <mxPoint x="1221" y="296.5" as="sourcePoint" />
          </mxGeometry>
        </mxCell>
        <mxCell id="23046e2b9bb16c14-56" value="&lt;span&gt;Availability set&lt;/span&gt;" style="rounded=1;whiteSpace=wrap;html=1;shadow=0;strokeWidth=2;fillColor=none;fontSize=11;fontColor=#FFFFFF;align=center;strokeColor=#FFFFFF;dashed=1;verticalAlign=top;" parent="1" vertex="1">
          <mxGeometry x="724" y="270" width="190" height="211" as="geometry" />
        </mxCell>
        <mxCell id="Cm0bcH-Zk1vUnTx-EvQP-5" value="" style="endArrow=none;html=1;" parent="1" source="23046e2b9bb16c14-116" target="23046e2b9bb16c14-116" edge="1">
          <mxGeometry width="50" height="50" relative="1" as="geometry">
            <mxPoint x="130" y="530" as="sourcePoint" />
            <mxPoint x="180" y="480" as="targetPoint" />
          </mxGeometry>
        </mxCell>
        <mxCell id="Cm0bcH-Zk1vUnTx-EvQP-4" value="&lt;font style=&quot;font-size: 14px&quot;&gt;Cluster File Server&lt;br&gt;with Storage Spaces&lt;br&gt;Direct and Data&lt;br&gt;Deduplication&lt;/font&gt;" style="rounded=1;whiteSpace=wrap;html=1;fillColor=#666666;strokeColor=#000000;gradientDirection=north;verticalAlign=top;fontFamily=Comic Sans MS;gradientColor=#E6E6E6;shadow=1;" parent="1" vertex="1">
          <mxGeometry x="680" y="168" width="274" height="436.75" as="geometry" />
        </mxCell>
        <mxCell id="Cm0bcH-Zk1vUnTx-EvQP-19" value="Virtual Network&#xa;Gateway" style="shape=image;verticalLabelPosition=bottom;labelBackgroundColor=none;verticalAlign=top;aspect=fixed;imageAspect=0;image=data:image/svg+xml,PHN2ZyB4bWxuczpkYz0iaHR0cDovL3B1cmwub3JnL2RjL2VsZW1lbnRzLzEuMS8iIHhtbG5zOmNjPSJodHRwOi8vY3JlYXRpdmVjb21tb25zLm9yZy9ucyMiIHhtbG5zOnJkZj0iaHR0cDovL3d3dy53My5vcmcvMTk5OS8wMi8yMi1yZGYtc3ludGF4LW5zIyIgeG1sbnM6c3ZnPSJodHRwOi8vd3d3LnczLm9yZy8yMDAwL3N2ZyIgeG1sbnM9Imh0dHA6Ly93d3cudzMub3JnLzIwMDAvc3ZnIiB4bWxuczpzb2RpcG9kaT0iaHR0cDovL3NvZGlwb2RpLnNvdXJjZWZvcmdlLm5ldC9EVEQvc29kaXBvZGktMC5kdGQiIHhtbG5zOmlua3NjYXBlPSJodHRwOi8vd3d3Lmlua3NjYXBlLm9yZy9uYW1lc3BhY2VzL2lua3NjYXBlIiB2ZXJzaW9uPSIxLjEiIGlkPSJzdmcxMDI2NjgiIGlua3NjYXBlOnZlcnNpb249IjAuOTIuMyAoMjQwNTU0NiwgMjAxOC0wMy0xMSkiIHNvZGlwb2RpOmRvY25hbWU9InZwbl9nYXRld2F5LnN2ZyIgeD0iMHB4IiB5PSIwcHgiIHZpZXdCb3g9IjAgMCA4OS42OSAxMDAuMTEiIHhtbDpzcGFjZT0icHJlc2VydmUiIHdpZHRoPSI4OS42OTAwMDIiIGhlaWdodD0iMTAwLjExIj48bWV0YWRhdGEgaWQ9Im1ldGFkYXRhNDMzMSI+PHJkZjpSREY+PGNjOldvcmsgcmRmOmFib3V0PSIiPjxkYzpmb3JtYXQ+aW1hZ2Uvc3ZnK3htbDwvZGM6Zm9ybWF0PjxkYzp0eXBlIHJkZjpyZXNvdXJjZT0iaHR0cDovL3B1cmwub3JnL2RjL2RjbWl0eXBlL1N0aWxsSW1hZ2UiLz48ZGM6dGl0bGUvPjwvY2M6V29yaz48L3JkZjpSREY+PC9tZXRhZGF0YT48ZGVmcyBpZD0iZGVmczQzMjkiPiYjeGE7CSYjeGE7JiN4YTsJJiN4YTsmI3hhOwkmI3hhOyYjeGE7CSYjeGE7JiN4YTsJCSYjeGE7CSYjeGE7CQkmI3hhOwkmI3hhOwkJJiN4YTsJPC9kZWZzPiYjeGE7PGZpbHRlciBpZD0iZmlsdGVyXzIiPiYjeGE7CTxmZUdhdXNzaWFuQmx1ciBpZD0iZmVHYXVzc2lhbkJsdXIxMDI2MjUiIHN0ZERldmlhdGlvbj0iMiIvPiYjeGE7PC9maWx0ZXI+JiN4YTs8c29kaXBvZGk6bmFtZWR2aWV3IGJvcmRlcmNvbG9yPSIjNjY2NjY2IiBib3JkZXJvcGFjaXR5PSIxIiBmaXQtbWFyZ2luLWJvdHRvbT0iMCIgZml0LW1hcmdpbi1sZWZ0PSIwIiBmaXQtbWFyZ2luLXJpZ2h0PSIwIiBmaXQtbWFyZ2luLXRvcD0iMCIgZ3JpZHRvbGVyYW5jZT0iMTAiIGd1aWRldG9sZXJhbmNlPSIxMCIgaWQ9Im5hbWVkdmlldzEwMjY3MCIgaW5rc2NhcGU6Y3VycmVudC1sYXllcj0ic3ZnMTAyNjY4IiBpbmtzY2FwZTpjeD0iLTM3LjI0Njc3NCIgaW5rc2NhcGU6Y3k9IjU0LjQwMjYwMSIgaW5rc2NhcGU6cGFnZW9wYWNpdHk9IjAiIGlua3NjYXBlOnBhZ2VzaGFkb3c9IjIiIGlua3NjYXBlOndpbmRvdy1oZWlnaHQ9IjEwMTciIGlua3NjYXBlOndpbmRvdy1tYXhpbWl6ZWQ9IjEiIGlua3NjYXBlOndpbmRvdy13aWR0aD0iMTkyMCIgaW5rc2NhcGU6d2luZG93LXg9Ii04IiBpbmtzY2FwZTp3aW5kb3cteT0iLTgiIGlua3NjYXBlOnpvb209IjMuNjkwNjE2NCIgb2JqZWN0dG9sZXJhbmNlPSIxMCIgcGFnZWNvbG9yPSIjZmZmZmZmIiBzaG93Z3JpZD0iZmFsc2UiPiYjeGE7CTwvc29kaXBvZGk6bmFtZWR2aWV3PiYjeGE7JiN4YTs8cGF0aCBpZD0icGF0aDEwMjYzOCIgaW5rc2NhcGU6Y29ubmVjdG9yLWN1cnZhdHVyZT0iMCIgc3R5bGU9ImZpbGw6I2EwYTFhMiIgZD0ibSA3OS4wOCwzNy4wNCB2IC00LjQgQyA3OS4wOCwyMy44MyA3NS44OCwxNS42MiA3MC4yNyw5LjgxIDY1LjA3LDMuODEgNTMuNDYsMCA0NC44NSwwIDM2LjI0LDAgMjQuNjIsMy44MSAxOS40Miw5LjgxIDE0LjAxLDE1LjYyIDEwLjYxLDIzLjgzIDEwLjYxLDMyLjY0IHYgNC40IGwgMTUuODIsMS44MSB2IC00LjAxIGMgMCwtNS4yIDEuOCwtMTEuODEgNC44LC0xNS4yMSAzLC0zLjQxIDkuNDEsLTUuMDEgMTMuNjIsLTUuMjEgNC4yLDAgMTAuNjEsMS44IDEzLjYxLDUuMjEgMywzLjQgNC44MSw3LjggNC44MSwxMi44MSB2IDYuNDEgeiIvPiYjeGE7JiN4YTs8cGF0aCBpZD0icGF0aDEwMjY0NiIgaW5rc2NhcGU6Y29ubmVjdG9yLWN1cnZhdHVyZT0iMCIgc3R5bGU9ImZpbGw6IzU5YjRkOSIgZD0iTSAxMC42MSwzNy4wNCBDIDIuOCwzNy4wNCAwLDQxLjY0IDAsNDcuNjUgdiA0MS44NCBjIDAsNS4yMSAzLjIsMTAuNjIgOS4yMSwxMC42MiBoIDcxLjI3IGMgNi44MSwwIDkuMjEsLTUuNDEgOS4yMSwtMTAuNjIgViA0Ny42NSBjIDAsLTUuNDEgLTIuMiwtMTAuNjEgLTEwLjYxLC0xMC42MSB6Ii8+JiN4YTsmI3hhOzxwYXRoIGlkPSJwYXRoMTAyNjU0IiBpbmtzY2FwZTpjb25uZWN0b3ItY3VydmF0dXJlPSIwIiBzdHlsZT0iZmlsbDojZmZmZmZmO2ZpbGwtb3BhY2l0eTowLjE1IiBkPSJNIDYzLjA3LDM3LjA0IEggMTAuNjEgQyAyLjgsMzcuMDQgMCw0MS42NCAwLDQ3LjY1IHYgNDEuODQgYyAwLDUuMjEgMy4yLDEwLjYyIDkuMjEsMTAuNjIgaCAxMy40MSB6Ii8+JiN4YTsmI3hhOzxwYXRoIGlkPSJwYXRoMTAyNjYyIiBpbmtzY2FwZTpjb25uZWN0b3ItY3VydmF0dXJlPSIwIiBzdHlsZT0iZmlsbDojZmZmZmZmIiBkPSJNIDMyLjgzLDU0LjI2IDQ0LjQ0LDQyLjY1IDU2LjA2LDU0LjI2IGggLTguMjEgdiA4LjQxIEggNDAuODQgViA1NC4yNiBaIE0gMTEuNDEsNzEuODggdiAtNi44MSBoIDEyLjAxIHYgLTggTCAzNC42Myw2OC4yOCAyMy40Miw3OS40OSBWIDcxLjY4IEggMTEuNDEgWiBNIDQ0LjQ0LDk0LjUxIDMyLjYzLDgyLjY5IGggOC4yMSB2IC04LjIxIGggNy4wMSB2IDguMjEgaCA4LjQxIHogTSA3Ny40OCw3MS44OCBIIDY1LjQ3IHYgOC4wMSBMIDU0LjA1LDY4LjQ4IDY1LjQ3LDU3LjA3IHYgOCBoIDEyLjAxIHoiLz4mI3hhOzwvc3ZnPg==;strokeColor=#000000;fillColor=#5A6570;fontFamily=Comic Sans MS;" parent="1" vertex="1">
          <mxGeometry x="30" y="398.31" width="70" height="77.78" as="geometry" />
        </mxCell>
        <mxCell id="Cm0bcH-Zk1vUnTx-EvQP-23" value="Virtual Servers" style="rounded=1;whiteSpace=wrap;html=1;shadow=0;strokeWidth=2;fontSize=12;align=center;verticalAlign=top;fillColor=#647687;strokeColor=#314354;fontColor=#ffffff;" parent="1" vertex="1">
          <mxGeometry x="708.5" y="251" width="217" height="310" as="geometry" />
        </mxCell>
        <mxCell id="Cm0bcH-Zk1vUnTx-EvQP-21" value="" style="shape=image;verticalLabelPosition=bottom;labelBackgroundColor=none;verticalAlign=top;aspect=fixed;imageAspect=0;image=data:image/svg+xml,PHN2ZyB4bWxuczpkYz0iaHR0cDovL3B1cmwub3JnL2RjL2VsZW1lbnRzLzEuMS8iIHhtbG5zOmNjPSJodHRwOi8vY3JlYXRpdmVjb21tb25zLm9yZy9ucyMiIHhtbG5zOnJkZj0iaHR0cDovL3d3dy53My5vcmcvMTk5OS8wMi8yMi1yZGYtc3ludGF4LW5zIyIgeG1sbnM6c3ZnPSJodHRwOi8vd3d3LnczLm9yZy8yMDAwL3N2ZyIgeG1sbnM9Imh0dHA6Ly93d3cudzMub3JnLzIwMDAvc3ZnIiB4bWxuczpzb2RpcG9kaT0iaHR0cDovL3NvZGlwb2RpLnNvdXJjZWZvcmdlLm5ldC9EVEQvc29kaXBvZGktMC5kdGQiIHhtbG5zOmlua3NjYXBlPSJodHRwOi8vd3d3Lmlua3NjYXBlLm9yZy9uYW1lc3BhY2VzL2lua3NjYXBlIiB2ZXJzaW9uPSIxLjEiIGlkPSJzdmc2NjA5NiIgaW5rc2NhcGU6dmVyc2lvbj0iMC45Mi4zICgyNDA1NTQ2LCAyMDE4LTAzLTExKSIgc29kaXBvZGk6ZG9jbmFtZT0iYXp1cmVfdm1fc2NhbGVfc2V0LnN2ZyIgeD0iMHB4IiB5PSIwcHgiIHZpZXdCb3g9IjAgMCAzNy41IDM3LjUiIHhtbDpzcGFjZT0icHJlc2VydmUiIHdpZHRoPSIzNy41IiBoZWlnaHQ9IjM3LjUiPjxtZXRhZGF0YSBpZD0ibWV0YWRhdGEyMDk1NyI+PHJkZjpSREY+PGNjOldvcmsgcmRmOmFib3V0PSIiPjxkYzpmb3JtYXQ+aW1hZ2Uvc3ZnK3htbDwvZGM6Zm9ybWF0PjxkYzp0eXBlIHJkZjpyZXNvdXJjZT0iaHR0cDovL3B1cmwub3JnL2RjL2RjbWl0eXBlL1N0aWxsSW1hZ2UiLz48ZGM6dGl0bGUvPjwvY2M6V29yaz48L3JkZjpSREY+PC9tZXRhZGF0YT48ZGVmcyBpZD0iZGVmczIwOTU1Ii8+JiN4YTs8ZmlsdGVyIGlkPSJmaWx0ZXJfMiI+JiN4YTsJPGZlR2F1c3NpYW5CbHVyIGlkPSJmZUdhdXNzaWFuQmx1cjY1OTMzIiBzdGREZXZpYXRpb249IjIiLz4mI3hhOzwvZmlsdGVyPiYjeGE7PHNvZGlwb2RpOm5hbWVkdmlldyBib3JkZXJjb2xvcj0iIzY2NjY2NiIgYm9yZGVyb3BhY2l0eT0iMSIgZml0LW1hcmdpbi1ib3R0b209IjAiIGZpdC1tYXJnaW4tbGVmdD0iMCIgZml0LW1hcmdpbi1yaWdodD0iMCIgZml0LW1hcmdpbi10b3A9IjAiIGdyaWR0b2xlcmFuY2U9IjEwIiBndWlkZXRvbGVyYW5jZT0iMTAiIGlkPSJuYW1lZHZpZXc2NjA5OCIgaW5rc2NhcGU6Y3VycmVudC1sYXllcj0ic3ZnNjYwOTYiIGlua3NjYXBlOmN4PSItNS43MTM2Mjk5IiBpbmtzY2FwZTpjeT0iOC42NTU1MTUzIiBpbmtzY2FwZTpwYWdlb3BhY2l0eT0iMCIgaW5rc2NhcGU6cGFnZXNoYWRvdz0iMiIgaW5rc2NhcGU6d2luZG93LWhlaWdodD0iMTAxNyIgaW5rc2NhcGU6d2luZG93LW1heGltaXplZD0iMSIgaW5rc2NhcGU6d2luZG93LXdpZHRoPSIxOTIwIiBpbmtzY2FwZTp3aW5kb3cteD0iLTgiIGlua3NjYXBlOndpbmRvdy15PSItOCIgaW5rc2NhcGU6em9vbT0iMTAuNTcwMDIyIiBvYmplY3R0b2xlcmFuY2U9IjEwIiBwYWdlY29sb3I9IiNmZmZmZmYiIHNob3dncmlkPSJmYWxzZSI+JiN4YTsJPC9zb2RpcG9kaTpuYW1lZHZpZXc+JiN4YTsmI3hhOzxwYXRoIGlkPSJwYXRoNjU5NDYiIGlua3NjYXBlOmNvbm5lY3Rvci1jdXJ2YXR1cmU9IjAiIHN0eWxlPSJmaWxsOiNhMGExYTIiIGQ9Ik0gMjYuNzksMCBIIDEuNTUgQyAwLjY5LDAgMCwwLjc3IDAsMS42MiBWIDE5LjIgYyAwLDAuODUgMC42OSwxLjYxIDEuNTUsMS42MSBoIDI1LjI0IGMgMC44NiwwIDEuNzIsLTAuNzYgMS43MiwtMS42MSBWIDEuNjIgQyAyOC41MSwwLjc2IDI3LjY1LDAgMjYuNzksMCBaIi8+JiN4YTsmI3hhOzxwYXRoIGlkPSJwYXRoNjU5NTQiIGlua3NjYXBlOmNvbm5lY3Rvci1jdXJ2YXR1cmU9IjAiIHN0eWxlPSJmaWxsOiNmZmZmZmY7ZmlsbC1vcGFjaXR5OjAuMiIgZD0iTSAyNi44MSwwIEMgMjYuOCwwIDI2LjgsMCAyNi43OSwwIEggMS41NSBDIDAuNjksMCAwLDAuNzcgMCwxLjYyIFYgMTkuMiBjIDAsMC44NSAwLjY5LDEuNjEgMS41NSwxLjYxIGggMC42IHoiLz4mI3hhOyYjeGE7PHBhdGggaWQ9InBhdGg2NTk2MiIgaW5rc2NhcGU6Y29ubmVjdG9yLWN1cnZhdHVyZT0iMCIgc3R5bGU9ImZpbGw6IzU5YjRkOSIgZD0iTSAyNi4zNSwxOC42MiBIIDIuMTYgViAyLjE5IEwgMjYuMzUsMi4xNiBaIi8+JiN4YTsmI3hhOzxwYXRoIGlkPSJwYXRoNjU5NzAiIGlua3NjYXBlOmNvbm5lY3Rvci1jdXJ2YXR1cmU9IjAiIHN0eWxlPSJmaWxsOiNiOGQ0MzIiIGQ9Im0gMTQuNTUsMS4yIGMgMCwwLjIyIC0wLjE4LDAuNCAtMC40MSwwLjQgLTAuMjIsMCAtMC40LC0wLjE4IC0wLjQsLTAuNCAwLC0wLjIzIDAuMTgsLTAuNDEgMC40LC0wLjQxIDAuMjMsMCAwLjQxLDAuMTggMC40MSwwLjQxIHoiLz4mI3hhOyYjeGE7PHBhdGggaWQ9InBhdGg2NTk3OCIgaW5rc2NhcGU6Y29ubmVjdG9yLWN1cnZhdHVyZT0iMCIgc3R5bGU9ImZpbGw6I2ZmZmZmZiIgZD0iTSAxNC41Nyw5LjkxIEMgMTQuNTUsOS45MSAxNC41Miw5LjkgMTQuNSw5Ljg5IEwgOS40Nyw2Ljk5IEMgOS40Myw2Ljk3IDkuNCw2LjkyIDkuNCw2Ljg2IDkuNCw2LjgxIDkuNDMsNi43NiA5LjQ3LDYuNzMgbCA1LC0yLjg3IGMgMC4wNCwtMC4wMyAwLjEsLTAuMDMgMC4xNSwwIGwgNS4wMiwyLjg5IGMgMC4wNCwwLjAzIDAuMDcsMC4wOCAwLjA3LDAuMTMgMCwwLjA2IC0wLjAyLDAuMTEgLTAuMDcsMC4xMyBMIDE0LjY1LDkuODkgQyAxNC42Myw5LjkgMTQuNiw5LjkxIDE0LjU3LDkuOTEgWiIvPiYjeGE7JiN4YTs8cGF0aCBpZD0icGF0aDY1OTg2IiBpbmtzY2FwZTpjb25uZWN0b3ItY3VydmF0dXJlPSIwIiBzdHlsZT0iZmlsbDojYTBhMWEyIiBkPSJNIDMxLjI1LDUuNTkgSCA2LjAxIGMgLTAuODYsMCAtMS41NSwwLjc3IC0xLjU1LDEuNjIgdiAxNy41OCBjIDAsMC44NSAwLjY5LDEuNjEgMS41NSwxLjYxIGggMjUuMjQgYyAwLjg2LDAgMS43MiwtMC43NiAxLjcyLC0xLjYxIFYgNy4yMSBjIDAsLTAuODYgLTAuODYsLTEuNjIgLTEuNzIsLTEuNjIgeiIvPiYjeGE7JiN4YTs8cGF0aCBpZD0icGF0aDY1OTk0IiBpbmtzY2FwZTpjb25uZWN0b3ItY3VydmF0dXJlPSIwIiBzdHlsZT0iZmlsbDojZmZmZmZmO2ZpbGwtb3BhY2l0eTowLjIiIGQ9Im0gMzEuMjcsNS41OSBjIC0wLjAxLDAgLTAuMDEsMCAtMC4wMiwwIEggNi4wMSBjIC0wLjg2LDAgLTEuNTUsMC43NyAtMS41NSwxLjYyIHYgMTcuNTggYyAwLDAuODUgMC42OSwxLjYxIDEuNTUsMS42MSBoIDAuNiB6Ii8+JiN4YTsmI3hhOzxwYXRoIGlkPSJwYXRoNjYwMDIiIGlua3NjYXBlOmNvbm5lY3Rvci1jdXJ2YXR1cmU9IjAiIHN0eWxlPSJmaWxsOiM1OWI0ZDkiIGQ9Ik0gMzAuODEsMjQuMjEgSCA2LjYyIFYgNy43OCBMIDMwLjgxLDcuNzUgYyAwLDAgMCwxNi40NiAwLDE2LjQ2IHoiLz4mI3hhOyYjeGE7PHBhdGggaWQ9InBhdGg2NjAxMCIgaW5rc2NhcGU6Y29ubmVjdG9yLWN1cnZhdHVyZT0iMCIgc3R5bGU9ImZpbGw6I2I4ZDQzMiIgZD0ibSAxOS4wMSw2Ljc5IGMgMCwwLjIyIC0wLjE4LDAuNCAtMC40MSwwLjQgLTAuMjIsMCAtMC40LC0wLjE4IC0wLjQsLTAuNCAwLC0wLjIzIDAuMTgsLTAuNDEgMC40LC0wLjQxIDAuMjMsMCAwLjQxLDAuMTggMC40MSwwLjQxIHoiLz4mI3hhOyYjeGE7PHBhdGggaWQ9InBhdGg2NjAxOCIgaW5rc2NhcGU6Y29ubmVjdG9yLWN1cnZhdHVyZT0iMCIgc3R5bGU9ImZpbGw6I2ZmZmZmZiIgZD0ibSAxOS4wMywxNS41IGMgLTAuMDIsMCAtMC4wNSwtMC4wMSAtMC4wNywtMC4wMiBsIC01LjAzLC0yLjkgYyAtMC4wNCwtMC4wMiAtMC4wNywtMC4wNyAtMC4wNywtMC4xMyAwLC0wLjA1IDAuMDMsLTAuMSAwLjA3LC0wLjEzIGwgNSwtMi44NyBjIDAuMDQsLTAuMDMgMC4xLC0wLjAzIDAuMTUsMCBsIDUuMDIsMi44OSBjIDAuMDQsMC4wMyAwLjA3LDAuMDggMC4wNywwLjEzIDAsMC4wNiAtMC4wMiwwLjExIC0wLjA3LDAuMTMgbCAtNC45OSwyLjg4IGMgLTAuMDMsMC4wMSAtMC4wNSwwLjAyIC0wLjA4LDAuMDIgeiIvPiYjeGE7JiN4YTs8cGF0aCBpZD0icGF0aDY2MDI2IiBpbmtzY2FwZTpjb25uZWN0b3ItY3VydmF0dXJlPSIwIiBzdHlsZT0iZmlsbDojN2E3YTdhIiBkPSJNIDI3LjQ4LDMyLjAyIEggMjYuOCAyMC4wNyAxOS43MiBjIDAuOTMsMy4yOSAtMC4zMiwzLjc2IC01LjgsMy43NiB2IDEuNzIgaCA2Ljk3IDUuMDkgNi41OCB2IC0xLjcyIGMgLTUuNDgsMCAtNi4wMiwtMC40NyAtNS4wOCwtMy43NiB6Ii8+JiN4YTsmI3hhOzxwYXRoIGlkPSJwYXRoNjYwMzQiIGlua3NjYXBlOmNvbm5lY3Rvci1jdXJ2YXR1cmU9IjAiIHN0eWxlPSJmaWxsOiNhMGExYTIiIGQ9Ik0gMzUuNzgsMTEuMjIgSCAxMC41NCBjIC0wLjg2LDAgLTEuNTUsMC43NyAtMS41NSwxLjYyIHYgMTcuNTggYyAwLDAuODUgMC42OSwxLjYxIDEuNTUsMS42MSBoIDI1LjI0IGMgMC44NiwwIDEuNzIsLTAuNzYgMS43MiwtMS42MSBWIDEyLjg0IGMgMCwtMC44NSAtMC44NiwtMS42MiAtMS43MiwtMS42MiB6Ii8+JiN4YTsmI3hhOzxwYXRoIGlkPSJwYXRoNjYwNDIiIGlua3NjYXBlOmNvbm5lY3Rvci1jdXJ2YXR1cmU9IjAiIHN0eWxlPSJmaWxsOiNmZmZmZmY7ZmlsbC1vcGFjaXR5OjAuMiIgZD0ibSAzNS43OSwxMS4yMiBjIC0wLjAxLDAgLTAuMDEsMCAtMC4wMiwwIEggMTAuNTMgYyAtMC44NiwwIC0xLjU1LDAuNzcgLTEuNTUsMS42MiB2IDE3LjU4IGMgMCwwLjg1IDAuNjksMS42MSAxLjU1LDEuNjEgaCAwLjYgeiIvPiYjeGE7JiN4YTs8cGF0aCBpZD0icGF0aDY2MDUwIiBpbmtzY2FwZTpjb25uZWN0b3ItY3VydmF0dXJlPSIwIiBzdHlsZT0iZmlsbDojNTliNGQ5IiBkPSJNIDM1LjM0LDI5Ljg0IEggMTEuMTUgViAxMy40MSBsIDI0LjE5LC0wLjAzIHoiLz4mI3hhOyYjeGE7PHJlY3QgaWQ9InJlY3Q2NjA1OCIgeD0iMTMuOTE5OTk4IiB5PSIzNS43Nzk5OTkiIHN0eWxlPSJmaWxsOiNhMGExYTIiIHdpZHRoPSIxOC42Mzk5OTkiIGhlaWdodD0iMS43MiIvPiYjeGE7JiN4YTs8cGF0aCBpZD0icGF0aDY2MDY2IiBpbmtzY2FwZTpjb25uZWN0b3ItY3VydmF0dXJlPSIwIiBzdHlsZT0iZmlsbDojYjhkNDMyIiBkPSJtIDIzLjU0LDEyLjQxIGMgMCwwLjIyIC0wLjE4LDAuNCAtMC40MSwwLjQgLTAuMjIsMCAtMC40LC0wLjE4IC0wLjQsLTAuNCAwLC0wLjIzIDAuMTgsLTAuNDEgMC40LC0wLjQxIDAuMjMsMCAwLjQxLDAuMTggMC40MSwwLjQxIHoiLz4mI3hhOyYjeGE7PHBhdGggaWQ9InBhdGg2NjA3NCIgaW5rc2NhcGU6Y29ubmVjdG9yLWN1cnZhdHVyZT0iMCIgc3R5bGU9ImZpbGw6I2ZmZmZmZiIgZD0ibSAyMy41NSwyMS4xMiBjIC0wLjAyLDAgLTAuMDUsLTAuMDEgLTAuMDcsLTAuMDIgbCAtNS4wMywtMi45IGMgLTAuMDQsLTAuMDIgLTAuMDcsLTAuMDcgLTAuMDcsLTAuMTMgMCwtMC4wNSAwLjAzLC0wLjEgMC4wNywtMC4xMyBsIDUsLTIuODcgYyAwLjA0LC0wLjAzIDAuMSwtMC4wMyAwLjE1LDAgbCA1LjAyLDIuODkgYyAwLjA0LDAuMDMgMC4wNywwLjA4IDAuMDcsMC4xMyAwLDAuMDYgLTAuMDIsMC4xMSAtMC4wNywwLjEzIGwgLTQuOTksMi44OCBjIC0wLjAyLDAuMDEgLTAuMDUsMC4wMiAtMC4wOCwwLjAyIHoiLz4mI3hhOyYjeGE7PHBhdGggaWQ9InBhdGg2NjA4MiIgaW5rc2NhcGU6Y29ubmVjdG9yLWN1cnZhdHVyZT0iMCIgc3R5bGU9ImZpbGw6I2ZmZmZmZjtmaWxsLW9wYWNpdHk6MC43IiBkPSJtIDIyLjgzLDI4LjE2IGMgLTAuMDMsMCAtMC4wNSwtMC4wMSAtMC4wOCwtMC4wMiBsIC01LC0yLjg5IEMgMTcuNywyNS4yMyAxNy42NywyNS4xOCAxNy42NywyNS4xMiB2IC01Ljc5IGMgMCwtMC4wNSAwLjAzLC0wLjEgMC4wOCwtMC4xMyAwLjA0LC0wLjAzIDAuMSwtMC4wMyAwLjE1LDAgbCA1LjAxLDIuODkgYyAwLjA0LDAuMDMgMC4wNywwLjA3IDAuMDcsMC4xMyB2IDUuNzkgYyAwLDAuMDUgLTAuMDMsMC4xIC0wLjA3LDAuMTMgLTAuMDMsMC4wMSAtMC4wNSwwLjAyIC0wLjA4LDAuMDIgeiIvPiYjeGE7JiN4YTs8cGF0aCBpZD0icGF0aDY2MDkwIiBpbmtzY2FwZTpjb25uZWN0b3ItY3VydmF0dXJlPSIwIiBzdHlsZT0iZmlsbDojZmZmZmZmO2ZpbGwtb3BhY2l0eTowLjQiIGQ9Im0gMjQuMjUsMjguMTYgYyAtMC4wMywwIC0wLjA1LC0wLjAxIC0wLjA4LC0wLjAyIC0wLjA0LC0wLjAzIC0wLjA3LC0wLjA4IC0wLjA3LC0wLjEzIHYgLTUuNzYgYyAwLC0wLjA1IDAuMDMsLTAuMSAwLjA3LC0wLjEzIGwgNS4wMSwtMi44OCBjIDAuMDUsLTAuMDMgMC4xLC0wLjAzIDAuMTUsMCAwLjA1LDAuMDMgMC4wOCwwLjA4IDAuMDgsMC4xMyB2IDUuNzUgYyAwLDAuMDYgLTAuMDMsMC4xMSAtMC4wOCwwLjE0IGwgLTUsMi44OCBjIC0wLjAzLDAuMDEgLTAuMDUsMC4wMiAtMC4wOCwwLjAyIHoiLz4mI3hhOzwvc3ZnPg==;strokeColor=#000000;fillColor=#5A6570;fontFamily=Comic Sans MS;spacing=4;" parent="1" vertex="1">
          <mxGeometry x="775" y="403" width="84" height="84" as="geometry" />
        </mxCell>
        <mxCell id="Cm0bcH-Zk1vUnTx-EvQP-22" value="" style="shape=image;verticalLabelPosition=bottom;labelBackgroundColor=#ffffff;verticalAlign=top;aspect=fixed;imageAspect=0;image=data:image/svg+xml,PHN2ZyB4bWxuczpkYz0iaHR0cDovL3B1cmwub3JnL2RjL2VsZW1lbnRzLzEuMS8iIHhtbG5zOmNjPSJodHRwOi8vY3JlYXRpdmVjb21tb25zLm9yZy9ucyMiIHhtbG5zOnJkZj0iaHR0cDovL3d3dy53My5vcmcvMTk5OS8wMi8yMi1yZGYtc3ludGF4LW5zIyIgeG1sbnM6c3ZnPSJodHRwOi8vd3d3LnczLm9yZy8yMDAwL3N2ZyIgeG1sbnM9Imh0dHA6Ly93d3cudzMub3JnLzIwMDAvc3ZnIiB4bWxuczp4bGluaz0iaHR0cDovL3d3dy53My5vcmcvMTk5OS94bGluayIgeG1sbnM6c29kaXBvZGk9Imh0dHA6Ly9zb2RpcG9kaS5zb3VyY2Vmb3JnZS5uZXQvRFREL3NvZGlwb2RpLTAuZHRkIiB4bWxuczppbmtzY2FwZT0iaHR0cDovL3d3dy5pbmtzY2FwZS5vcmcvbmFtZXNwYWNlcy9pbmtzY2FwZSIgdmVyc2lvbj0iMS4xIiBpZD0iTGF5ZXJfMSIgeD0iMHB4IiB5PSIwcHgiIHZpZXdCb3g9IjAgMCAxNy45Mzk5OTkgMTYuNDM5OTk5IiB4bWw6c3BhY2U9InByZXNlcnZlIiBzb2RpcG9kaTpkb2NuYW1lPSJkaXNrc19zdG9yYWdlLnN2ZyIgd2lkdGg9IjE3LjkzOTk5OSIgaGVpZ2h0PSIxNi40Mzk5OTkiIGlua3NjYXBlOnZlcnNpb249IjAuOTIuMyAoMjQwNTU0NiwgMjAxOC0wMy0xMSkiPjxtZXRhZGF0YSBpZD0ibWV0YWRhdGEzMTA3NSI+PHJkZjpSREY+PGNjOldvcmsgcmRmOmFib3V0PSIiPjxkYzpmb3JtYXQ+aW1hZ2Uvc3ZnK3htbDwvZGM6Zm9ybWF0PjxkYzp0eXBlIHJkZjpyZXNvdXJjZT0iaHR0cDovL3B1cmwub3JnL2RjL2RjbWl0eXBlL1N0aWxsSW1hZ2UiLz48ZGM6dGl0bGUvPjwvY2M6V29yaz48L3JkZjpSREY+PC9tZXRhZGF0YT48ZGVmcyBpZD0iZGVmczMxMDczIi8+PHNvZGlwb2RpOm5hbWVkdmlldyBwYWdlY29sb3I9IiNmZmZmZmYiIGJvcmRlcmNvbG9yPSIjNjY2NjY2IiBib3JkZXJvcGFjaXR5PSIxIiBvYmplY3R0b2xlcmFuY2U9IjEwIiBncmlkdG9sZXJhbmNlPSIxMCIgZ3VpZGV0b2xlcmFuY2U9IjEwIiBpbmtzY2FwZTpwYWdlb3BhY2l0eT0iMCIgaW5rc2NhcGU6cGFnZXNoYWRvdz0iMiIgaW5rc2NhcGU6d2luZG93LXdpZHRoPSIxOTIwIiBpbmtzY2FwZTp3aW5kb3ctaGVpZ2h0PSIxMDE3IiBpZD0ibmFtZWR2aWV3MzEwNzEiIHNob3dncmlkPSJmYWxzZSIgZml0LW1hcmdpbi10b3A9IjAiIGZpdC1tYXJnaW4tbGVmdD0iMCIgZml0LW1hcmdpbi1yaWdodD0iMCIgZml0LW1hcmdpbi1ib3R0b209IjAiIGlua3NjYXBlOnpvb209IjguMjQyNDI0MiIgaW5rc2NhcGU6Y3g9IjM0LjkzMjczNCIgaW5rc2NhcGU6Y3k9Ii01Ljg3NTA0NTgiIGlua3NjYXBlOndpbmRvdy14PSItOCIgaW5rc2NhcGU6d2luZG93LXk9Ii04IiBpbmtzY2FwZTp3aW5kb3ctbWF4aW1pemVkPSIxIiBpbmtzY2FwZTpjdXJyZW50LWxheWVyPSJMYXllcl8xIi8+JiN4YTsmI3hhOzxnIGlkPSJnMzEwNjgiIHRyYW5zZm9ybT0idHJhbnNsYXRlKC01NS44NjAwMDEsLTIwNi4xMSkiPiYjeGE7CTxkZWZzIGlkPSJkZWZzMzEwMzUiPiYjeGE7CQk8cmVjdCBpZD0iU1ZHSURfM18iIHg9IjU1Ljg2MDAwMSIgeT0iMjA2LjExIiB3aWR0aD0iMTkuODA5OTk5IiBoZWlnaHQ9IjE2Ljk4Ii8+JiN4YTsJPC9kZWZzPiYjeGE7CTxjbGlwUGF0aCBpZD0iU1ZHSURfNF8iPiYjeGE7CQk8dXNlIHhsaW5rOmhyZWY9IiNTVkdJRF8zXyIgc3R5bGU9Im92ZXJmbG93OnZpc2libGUiIGlkPSJ1c2UzMTAzNyIgeD0iMCIgeT0iMCIgd2lkdGg9IjEwMCUiIGhlaWdodD0iMTAwJSIvPiYjeGE7CTwvY2xpcFBhdGg+JiN4YTsJPGcgY2xpcC1wYXRoPSJ1cmwoI1NWR0lEXzRfKSIgaWQ9ImczMTA2NiI+JiN4YTsJCTxkZWZzIGlkPSJkZWZzMzEwNDEiPiYjeGE7CQkJPHJlY3QgaWQ9IlNWR0lEXzVfIiB4PSI1NS44NjAwMDEiIHk9IjIwNi4xMSIgd2lkdGg9IjE5LjgwOTk5OSIgaGVpZ2h0PSIxNi45OCIvPiYjeGE7CQk8L2RlZnM+JiN4YTsJCTxjbGlwUGF0aCBpZD0iU1ZHSURfNl8iPiYjeGE7CQkJPHVzZSB4bGluazpocmVmPSIjU1ZHSURfNV8iIHN0eWxlPSJvdmVyZmxvdzp2aXNpYmxlIiBpZD0idXNlMzEwNDMiIHg9IjAiIHk9IjAiIHdpZHRoPSIxMDAlIiBoZWlnaHQ9IjEwMCUiLz4mI3hhOwkJPC9jbGlwUGF0aD4mI3hhOwkJPHBhdGggc3R5bGU9ImZpbGw6IzRhOWY0OSIgZD0ibSA3My44LDIxOS4yIGMgMCwxLjg1IC00LjAxLDMuMzUgLTguOTcsMy4zNSAtNC45NiwwIC04Ljk3LC0xLjQ5IC04Ljk3LC0zLjM1IHYgLTIuMjcgSCA3My44IFoiIGNsaXAtcGF0aD0idXJsKCNTVkdJRF82XykiIGlkPSJwYXRoMzEwNDYiIGlua3NjYXBlOmNvbm5lY3Rvci1jdXJ2YXR1cmU9IjAiLz4mI3hhOwkJPHBhdGggc3R5bGU9ImZpbGw6I2FkYzgwYiIgZD0ibSA3My44LDIxNi45MyBjIDAsMS44NSAtNC4wMSwzLjQxIC04Ljk3LDMuNDEgLTQuOTYsMCAtOC45NywtMS41NSAtOC45NywtMy40MSAwLC0xLjg1IDQuMDEsLTMuMzUgOC45NywtMy4zNSA0Ljk2LDAgOC45NywxLjUgOC45NywzLjM1IHoiIGNsaXAtcGF0aD0idXJsKCNTVkdJRF82XykiIGlkPSJwYXRoMzEwNDgiIGlua3NjYXBlOmNvbm5lY3Rvci1jdXJ2YXR1cmU9IjAiLz4mI3hhOwkJPHBhdGggc3R5bGU9ImZpbGw6I2NiZTIzOCIgZD0ibSA2My42MywyMTMuNTggYyAtMS41LDAuMDYgLTIuOTksMC4zIC00LjQzLDAuNzggbCA0LjA3LDEuODUgYyAwLjQyLC0wLjEyIDAuNzgsLTAuMTggMS4yLC0wLjE4IHoiIGNsaXAtcGF0aD0idXJsKCNTVkdJRF82XykiIGlkPSJwYXRoMzEwNTAiIGlua3NjYXBlOmNvbm5lY3Rvci1jdXJ2YXR1cmU9IjAiLz4mI3hhOwkJPHBhdGggc3R5bGU9ImZpbGw6I2NiZTIzOCIgZD0ibSA3MC40NSwyMTkuNTYgLTQuMDcsLTEuOTEgYyAtMC40MiwwLjEyIC0wLjg0LDAuMTggLTEuMiwwLjI0IGwgMC44NCwyLjQ1IGMgMS41LC0wLjEyIDMsLTAuMzYgNC40MywtMC43OCB6IiBjbGlwLXBhdGg9InVybCgjU1ZHSURfNl8pIiBpZD0icGF0aDMxMDUyIiBpbmtzY2FwZTpjb25uZWN0b3ItY3VydmF0dXJlPSIwIi8+JiN4YTsJCTxwYXRoIHN0eWxlPSJmaWxsOiMwODdlMDYiIGQ9Im0gNjcuMjgsMjE2LjkzIGMgMCwwLjU0IC0xLjE0LDAuOTYgLTIuNDUsMC45NiAtMS4zMSwwIC0yLjQ1LC0wLjQyIC0yLjQ1LC0wLjk2IDAsLTAuNDggMS4xNCwtMC45IDIuNDUsLTAuOSAxLjMxLDAgMi40NSwwLjQyIDIuNDUsMC45IHoiIGNsaXAtcGF0aD0idXJsKCNTVkdJRF82XykiIGlkPSJwYXRoMzEwNTQiIGlua3NjYXBlOmNvbm5lY3Rvci1jdXJ2YXR1cmU9IjAiLz4mI3hhOwkJPHBhdGggc3R5bGU9ImZpbGw6IzA4NzlkYSIgZD0ibSA3My44LDIxMS43MyBjIDAsMS44NSAtNC4wMSwzLjM1IC04Ljk3LDMuMzUgLTQuOTYsMCAtOC45NywtMS40OSAtOC45NywtMy4zNSB2IC0yLjI3IEggNzMuOCBaIiBjbGlwLXBhdGg9InVybCgjU1ZHSURfNl8pIiBpZD0icGF0aDMxMDU2IiBpbmtzY2FwZTpjb25uZWN0b3ItY3VydmF0dXJlPSIwIi8+JiN4YTsJCTxwYXRoIHN0eWxlPSJmaWxsOiMxMWJkZjUiIGQ9Im0gNzMuOCwyMDkuNDYgYyAwLDEuODUgLTQuMDEsMy40MSAtOC45NywzLjQxIC00Ljk2LDAgLTguOTcsLTEuNTUgLTguOTcsLTMuNDEgMCwtMS44NSA0LjAxLC0zLjM1IDguOTcsLTMuMzUgNC45NiwwIDguOTcsMS41IDguOTcsMy4zNSB6IiBjbGlwLXBhdGg9InVybCgjU1ZHSURfNl8pIiBpZD0icGF0aDMxMDU4IiBpbmtzY2FwZTpjb25uZWN0b3ItY3VydmF0dXJlPSIwIi8+JiN4YTsJCTxwYXRoIHN0eWxlPSJmaWxsOiMzOWNlZjciIGQ9Im0gNjMuNjMsMjA2LjExIGMgLTEuNSwwLjA2IC0yLjk5LDAuMyAtNC40MywwLjc4IGwgNC4wNywxLjg1IGMgMC40MiwtMC4xMiAwLjg0LC0wLjE4IDEuMiwtMC4xOCB6IiBjbGlwLXBhdGg9InVybCgjU1ZHSURfNl8pIiBpZD0icGF0aDMxMDYwIiBpbmtzY2FwZTpjb25uZWN0b3ItY3VydmF0dXJlPSIwIi8+JiN4YTsJCTxwYXRoIHN0eWxlPSJmaWxsOiMzOWNlZjciIGQ9Im0gNzAuNDUsMjEyLjA5IC00LjA3LC0xLjkxIGMgLTAuNDIsMC4xMiAtMC44NCwwLjE4IC0xLjIsMC4yNCBsIDAuODQsMi40NSBjIDEuNSwtMC4xMiAzLC0wLjM2IDQuNDMsLTAuNzggeiIgY2xpcC1wYXRoPSJ1cmwoI1NWR0lEXzZfKSIgaWQ9InBhdGgzMTA2MiIgaW5rc2NhcGU6Y29ubmVjdG9yLWN1cnZhdHVyZT0iMCIvPiYjeGE7CQk8cGF0aCBzdHlsZT0iZmlsbDojMDM1MjkzIiBkPSJtIDY3LjI4LDIwOS40NiBjIDAsMC41NCAtMS4xNCwwLjk2IC0yLjQ1LDAuOTYgLTEuMzEsMCAtMi40NSwtMC40MiAtMi40NSwtMC45NiAwLC0wLjQ4IDEuMTQsLTAuOSAyLjQ1LC0wLjkgMS4zMSwwIDIuNDUsMC40MiAyLjQ1LDAuOSB6IiBjbGlwLXBhdGg9InVybCgjU1ZHSURfNl8pIiBpZD0icGF0aDMxMDY0IiBpbmtzY2FwZTpjb25uZWN0b3ItY3VydmF0dXJlPSIwIi8+JiN4YTsJPC9nPiYjeGE7PC9nPiYjeGE7PC9zdmc+;strokeColor=#000000;fillColor=#5A6570;" parent="1" vertex="1">
          <mxGeometry x="782.13" y="312" width="69.75" height="62" as="geometry" />
        </mxCell>
        <mxCell id="Cm0bcH-Zk1vUnTx-EvQP-30" value="" style="line;strokeWidth=2;html=1;perimeter=backbonePerimeter;points=[];outlineConnect=0;strokeColor=#F5FFFD;direction=south;dashed=1;" parent="1" vertex="1">
          <mxGeometry x="819" y="490" width="10" height="190" as="geometry" />
        </mxCell>
        <mxCell id="k2umHwyk2At3dYCqrpzW-6" value="&lt;span&gt;&lt;sub&gt;&lt;font style=&quot;font-size: 12px&quot;&gt;Azure Firewall&lt;br&gt;Manager&lt;/font&gt;&lt;/sub&gt;&lt;/span&gt;" style="aspect=fixed;html=1;points=[];align=center;image;fontSize=12;image=img/lib/azure2/networking/Azure_Firewall_Manager.svg;labelBackgroundColor=none;verticalAlign=bottom;horizontal=1;labelPosition=center;verticalLabelPosition=top;spacing=9;fontFamily=Comic Sans MS;" parent="1" vertex="1">
          <mxGeometry x="150" y="260" width="100.34" height="86" as="geometry" />
        </mxCell>
        <mxCell id="Cm0bcH-Zk1vUnTx-EvQP-2" value="Azure Firewall" style="shape=image;verticalLabelPosition=bottom;labelBackgroundColor=none;verticalAlign=top;aspect=fixed;imageAspect=0;image=data:image/svg+xml,PHN2ZyB4bWxuczpjYz0iaHR0cDovL2NyZWF0aXZlY29tbW9ucy5vcmcvbnMjIiB4bWxuczpkYz0iaHR0cDovL3B1cmwub3JnL2RjL2VsZW1lbnRzLzEuMS8iIHhtbG5zOmlua3NjYXBlPSJodHRwOi8vd3d3Lmlua3NjYXBlLm9yZy9uYW1lc3BhY2VzL2lua3NjYXBlIiB4bWxuczpyZGY9Imh0dHA6Ly93d3cudzMub3JnLzE5OTkvMDIvMjItcmRmLXN5bnRheC1ucyMiIHhtbG5zOnNvZGlwb2RpPSJodHRwOi8vc29kaXBvZGkuc291cmNlZm9yZ2UubmV0L0RURC9zb2RpcG9kaS0wLmR0ZCIgeG1sbnM6c3ZnPSJodHRwOi8vd3d3LnczLm9yZy8yMDAwL3N2ZyIgeG1sbnM9Imh0dHA6Ly93d3cudzMub3JnLzIwMDAvc3ZnIiB4bWxuczp4bGluaz0iaHR0cDovL3d3dy53My5vcmcvMTk5OS94bGluayIgdmVyc2lvbj0iMS4xIiBpZD0ic3ZnNTg0NTUiIGlua3NjYXBlOnZlcnNpb249IjAuOTIuMyAoMjQwNTU0NiwgMjAxOC0wMy0xMSkiIHNvZGlwb2RpOmRvY25hbWU9ImF6dXJlX2ZpcmV3YWxsLnN2ZyIgeD0iMHB4IiB5PSIwcHgiIHZpZXdCb3g9IjAgMCAzNy40MiAzNy40MyIgc3R5bGU9ImVuYWJsZS1iYWNrZ3JvdW5kOm5ldyAwIDAgMzcuNDIgMzcuNDM7IiB4bWw6c3BhY2U9InByZXNlcnZlIj4mI3hhOzxzb2RpcG9kaTpuYW1lZHZpZXcgYm9yZGVyY29sb3I9IiM2NjY2NjYiIGJvcmRlcm9wYWNpdHk9IjEiIGZpdC1tYXJnaW4tYm90dG9tPSIwIiBmaXQtbWFyZ2luLWxlZnQ9IjAiIGZpdC1tYXJnaW4tcmlnaHQ9IjAiIGZpdC1tYXJnaW4tdG9wPSIwIiBncmlkdG9sZXJhbmNlPSIxMCIgZ3VpZGV0b2xlcmFuY2U9IjEwIiBpZD0ibmFtZWR2aWV3NTg0NTciIGlua3NjYXBlOmN1cnJlbnQtbGF5ZXI9InN2ZzU4NDU1IiBpbmtzY2FwZTpjeD0iMzQuMTg2MzE2IiBpbmtzY2FwZTpjeT0iMTguNzQ1Mzk3IiBpbmtzY2FwZTpwYWdlb3BhY2l0eT0iMCIgaW5rc2NhcGU6cGFnZXNoYWRvdz0iMiIgaW5rc2NhcGU6d2luZG93LWhlaWdodD0iMTAxNyIgaW5rc2NhcGU6d2luZG93LW1heGltaXplZD0iMSIgaW5rc2NhcGU6d2luZG93LXdpZHRoPSIxOTIwIiBpbmtzY2FwZTp3aW5kb3cteD0iLTgiIGlua3NjYXBlOndpbmRvdy15PSItOCIgaW5rc2NhcGU6em9vbT0iMTEuODEyMzYyIiBvYmplY3R0b2xlcmFuY2U9IjEwIiBwYWdlY29sb3I9IiNmZmZmZmYiIHNob3dncmlkPSJmYWxzZSI+JiN4YTsJPC9zb2RpcG9kaTpuYW1lZHZpZXc+JiN4YTs8ZyBpZD0iZzU4NDUzIiB0cmFuc2Zvcm09InRyYW5zbGF0ZSgtMC43NSwtMC43NTA3KSI+JiN4YTsJPHRpdGxlIGlkPSJ0aXRsZTU4Mjg0Ij5QYWdlLTE8L3RpdGxlPiYjeGE7CTxnIGlkPSJncm91cDU5NTAtMSIgdHJhbnNmb3JtPSJ0cmFuc2xhdGUoMC43NSwtMC43NSkiPiYjeGE7CQk8dGl0bGUgaWQ9InRpdGxlNTgyODYiPkF6dXJlIEZpcmV3YWxsPC90aXRsZT4mI3hhOwkJPGcgaWQ9InNoYXBlNTk1MS0yIiB0cmFuc2Zvcm09InRyYW5zbGF0ZSg3LjU3NSwtMTQuMjQ5MykiPiYjeGE7CQkJPHRpdGxlIGlkPSJ0aXRsZTU4Mjg4Ij5TaGVldC41OTUxPC90aXRsZT4mI3hhOwkJCTxwYXRoIGlkPSJwYXRoNTgyOTAiIGlua3NjYXBlOmNvbm5lY3Rvci1jdXJ2YXR1cmU9IjAiIHN0eWxlPSJmaWxsOiM1OUI0RDk7IiBkPSJNNy4wOSwyMy4yOGMwLjY5LTQuMjcsNC4zNy03LjUzLDguODItNy41MyAgICAgYzQuOTQsMCw4Ljk1LDQuMDIsOC45NSw4Ljk4YzAsMC41OC0wLjA2LDEuMTQtMC4xNywxLjY5YzIuOSwwLjMyLDUuMTYsMi45OCw1LjE2LDYuMjJjMCwzLjQ1LTIuNTksNi4yOS01Ljc2LDYuMjkgICAgIGMtMC43MSwwLTE2LjQ2LDAtMTYuNDYsMEMzLjQzLDM4LjkyLDAsMzUuMzEsMCwzMC45N0MwLDI2LjkxLDMuMTIsMjMuNiw3LjA5LDIzLjI4eiIvPiYjeGE7CQk8L2c+JiN4YTsJCTxnIGlkPSJncm91cDU5NTItNCI+JiN4YTsJCQk8dGl0bGUgaWQ9InRpdGxlNTgyOTMiPlNoZWV0LjU5NTI8L3RpdGxlPiYjeGE7CQkJPGcgaWQ9Imdyb3VwNTk1My01IiB0cmFuc2Zvcm09InRyYW5zbGF0ZSg5Ljc1LC0xNS43NSkiPiYjeGE7CQkJCTx0aXRsZSBpZD0idGl0bGU1ODI5NSI+U2hlZXQuNTk1MzwvdGl0bGU+JiN4YTsJCQkJPGcgaWQ9InNoYXBlNTk1NC02IiB0cmFuc2Zvcm09InRyYW5zbGF0ZSgwLjc1LC0wLjc1KSI+JiN4YTsJCQkJCTx0aXRsZSBpZD0idGl0bGU1ODI5NyI+U2hlZXQuNTk1NDwvdGl0bGU+JiN4YTsJCQkJCTxwYXRoIGlkPSJwYXRoNTgyOTkiIGlua3NjYXBlOmNvbm5lY3Rvci1jdXJ2YXR1cmU9IjAiIHN0eWxlPSJmaWxsOiNERDU5MDA7IiBkPSJNMC43NSwzOC45M0MwLjM0LDM4LjkzLDAsMzguNTksMCwzOC4xOHYtMy43NiAgICAgICBjMC0wLjQxLDAuMzQtMC43NSwwLjc1LTAuNzVIOWMwLjQxLDAsMC43NSwwLjM0LDAuNzUsMC43NXYzLjc2YzAsMC40MS0wLjM0LDAuNzUtMC43NSwwLjc1TDAuNzUsMzguOTN6Ii8+JiN4YTsJCQkJPC9nPiYjeGE7CQkJCTxnIGlkPSJzaGFwZTU5NTUtOCI+JiN4YTsJCQkJCTx0aXRsZSBpZD0idGl0bGU1ODMwMiI+U2hlZXQuNTk1NTwvdGl0bGU+JiN4YTsJCQkJCTxwYXRoIGlkPSJwYXRoNTgzMDQiIGlua3NjYXBlOmNvbm5lY3Rvci1jdXJ2YXR1cmU9IjAiIHN0eWxlPSJmaWxsOiNBMEExQTI7IiBkPSJNOS43NSwzMy42N3YzLjc2SDEuNXYtMy43Nkg5Ljc1eiBNOS43NSwzMi4xNyAgICAgICBIMS41Yy0wLjgzLDAtMS41LDAuNjgtMS41LDEuNXYzLjc2YzAsMC44MiwwLjY3LDEuNSwxLjUsMS41aDguMjVjMC44MywwLDEuNS0wLjY4LDEuNS0xLjV2LTMuNzYgICAgICAgQzExLjI1LDMyLjg1LDEwLjU4LDMyLjE3LDkuNzUsMzIuMTd6Ii8+JiN4YTsJCQkJPC9nPiYjeGE7CQkJPC9nPiYjeGE7CQkJPGcgaWQ9Imdyb3VwNTk1Ni0xMCIgdHJhbnNmb3JtPSJ0cmFuc2xhdGUoMTkuNSwtMTUuNzUpIj4mI3hhOwkJCQk8dGl0bGUgaWQ9InRpdGxlNTgzMDgiPlNoZWV0LjU5NTY8L3RpdGxlPiYjeGE7CQkJCTxnIGlkPSJzaGFwZTU5NTctMTEiIHRyYW5zZm9ybT0idHJhbnNsYXRlKDAuNzUsLTAuNzUpIj4mI3hhOwkJCQkJPHRpdGxlIGlkPSJ0aXRsZTU4MzEwIj5TaGVldC41OTU3PC90aXRsZT4mI3hhOwkJCQkJPHBhdGggaWQ9InBhdGg1ODMxMiIgaW5rc2NhcGU6Y29ubmVjdG9yLWN1cnZhdHVyZT0iMCIgc3R5bGU9ImZpbGw6I0JBMTQxQTsiIGQ9Ik0wLjc1LDM4LjkzQzAuMzQsMzguOTMsMCwzOC41OSwwLDM4LjE4di0zLjc2ICAgICAgIGMwLTAuNDEsMC4zNC0wLjc1LDAuNzUtMC43NUg5YzAuNDEsMCwwLjc1LDAuMzQsMC43NSwwLjc1djMuNzZjMCwwLjQxLTAuMzQsMC43NS0wLjc1LDAuNzVMMC43NSwzOC45M3oiLz4mI3hhOwkJCQk8L2c+JiN4YTsJCQkJPGcgaWQ9InNoYXBlNTk1OC0xMyI+JiN4YTsJCQkJCTx0aXRsZSBpZD0idGl0bGU1ODMxNSI+U2hlZXQuNTk1ODwvdGl0bGU+JiN4YTsJCQkJCTxwYXRoIGlkPSJwYXRoNTgzMTciIGlua3NjYXBlOmNvbm5lY3Rvci1jdXJ2YXR1cmU9IjAiIHN0eWxlPSJmaWxsOiNBMEExQTI7IiBkPSJNOS43NSwzMy42N3YzLjc2SDEuNXYtMy43Nkg5Ljc1eiBNOS43NSwzMi4xNyAgICAgICBIMS41Yy0wLjgzLDAtMS41LDAuNjgtMS41LDEuNXYzLjc2YzAsMC44MiwwLjY3LDEuNSwxLjUsMS41aDguMjVjMC44MywwLDEuNS0wLjY4LDEuNS0xLjV2LTMuNzYgICAgICAgQzExLjI1LDMyLjg1LDEwLjU4LDMyLjE3LDkuNzUsMzIuMTd6Ii8+JiN4YTsJCQkJPC9nPiYjeGE7CQkJPC9nPiYjeGE7CQkJPGcgaWQ9Imdyb3VwNTk1OS0xNSIgdHJhbnNmb3JtPSJ0cmFuc2xhdGUoMCwtMTUuNzUpIj4mI3hhOwkJCQk8dGl0bGUgaWQ9InRpdGxlNTgzMjEiPlNoZWV0LjU5NTk8L3RpdGxlPiYjeGE7CQkJCTxnIGlkPSJzaGFwZTU5NjAtMTYiIHRyYW5zZm9ybT0idHJhbnNsYXRlKDAuNzUsLTAuNzUpIj4mI3hhOwkJCQkJPHRpdGxlIGlkPSJ0aXRsZTU4MzIzIj5TaGVldC41OTYwPC90aXRsZT4mI3hhOwkJCQkJPHBhdGggaWQ9InBhdGg1ODMyNSIgaW5rc2NhcGU6Y29ubmVjdG9yLWN1cnZhdHVyZT0iMCIgc3R5bGU9ImZpbGw6I0JBMTQxQTsiIGQ9Ik0wLjc1LDM4LjkzQzAuMzQsMzguOTMsMCwzOC41OSwwLDM4LjE4di0zLjc2ICAgICAgIGMwLTAuNDEsMC4zNC0wLjc1LDAuNzUtMC43NUg5YzAuNDEsMCwwLjc1LDAuMzQsMC43NSwwLjc1djMuNzZjMCwwLjQxLTAuMzQsMC43NS0wLjc1LDAuNzVMMC43NSwzOC45M3oiLz4mI3hhOwkJCQk8L2c+JiN4YTsJCQkJPGcgaWQ9InNoYXBlNTk2MS0xOCI+JiN4YTsJCQkJCTx0aXRsZSBpZD0idGl0bGU1ODMyOCI+U2hlZXQuNTk2MTwvdGl0bGU+JiN4YTsJCQkJCTxwYXRoIGlkPSJwYXRoNTgzMzAiIGlua3NjYXBlOmNvbm5lY3Rvci1jdXJ2YXR1cmU9IjAiIHN0eWxlPSJmaWxsOiNBMEExQTI7IiBkPSJNOS43NSwzMy42N3YzLjc2SDEuNXYtMy43Nkg5Ljc1eiBNOS43NSwzMi4xNyAgICAgICBIMS41Yy0wLjgzLDAtMS41LDAuNjgtMS41LDEuNXYzLjc2YzAsMC44MiwwLjY3LDEuNSwxLjUsMS41aDguMjVjMC44MywwLDEuNS0wLjY4LDEuNS0xLjV2LTMuNzYgICAgICAgQzExLjI1LDMyLjg1LDEwLjU4LDMyLjE3LDkuNzUsMzIuMTd6Ii8+JiN4YTsJCQkJPC9nPiYjeGE7CQkJPC9nPiYjeGE7CQkJPGcgaWQ9Imdyb3VwNTk2Mi0yMCIgdHJhbnNmb3JtPSJ0cmFuc2xhdGUoOS43NSwtMTAuNSkiPiYjeGE7CQkJCTx0aXRsZSBpZD0idGl0bGU1ODMzNCI+U2hlZXQuNTk2MjwvdGl0bGU+JiN4YTsJCQkJPGcgaWQ9InNoYXBlNTk2My0yMSIgdHJhbnNmb3JtPSJ0cmFuc2xhdGUoMC43NSwtMC43NSkiPiYjeGE7CQkJCQk8dGl0bGUgaWQ9InRpdGxlNTgzMzYiPlNoZWV0LjU5NjM8L3RpdGxlPiYjeGE7CQkJCQk8cGF0aCBpZD0icGF0aDU4MzM4IiBpbmtzY2FwZTpjb25uZWN0b3ItY3VydmF0dXJlPSIwIiBzdHlsZT0iZmlsbDojQkExNDFBOyIgZD0iTTAuNzUsMzguOTNDMC4zNCwzOC45MywwLDM4LjU5LDAsMzguMTh2LTMuNzYgICAgICAgYzAtMC40MSwwLjM0LTAuNzUsMC43NS0wLjc1SDljMC40MSwwLDAuNzUsMC4zNCwwLjc1LDAuNzV2My43NmMwLDAuNDEtMC4zNCwwLjc1LTAuNzUsMC43NUwwLjc1LDM4LjkzeiIvPiYjeGE7CQkJCTwvZz4mI3hhOwkJCQk8ZyBpZD0ic2hhcGU1OTY0LTIzIj4mI3hhOwkJCQkJPHRpdGxlIGlkPSJ0aXRsZTU4MzQxIj5TaGVldC41OTY0PC90aXRsZT4mI3hhOwkJCQkJPHBhdGggaWQ9InBhdGg1ODM0MyIgaW5rc2NhcGU6Y29ubmVjdG9yLWN1cnZhdHVyZT0iMCIgc3R5bGU9ImZpbGw6I0EwQTFBMjsiIGQ9Ik05Ljc1LDMzLjY3djMuNzZIMS41di0zLjc2SDkuNzV6IE05Ljc1LDMyLjE3ICAgICAgIEgxLjVjLTAuODMsMC0xLjUsMC42OC0xLjUsMS41djMuNzZjMCwwLjgyLDAuNjcsMS41LDEuNSwxLjVoOC4yNWMwLjgzLDAsMS41LTAuNjgsMS41LTEuNXYtMy43NiAgICAgICBDMTEuMjUsMzIuODUsMTAuNTgsMzIuMTcsOS43NSwzMi4xN3oiLz4mI3hhOwkJCQk8L2c+JiN4YTsJCQk8L2c+JiN4YTsJCQk8ZyBpZD0iZ3JvdXA1OTY1LTI1IiB0cmFuc2Zvcm09InRyYW5zbGF0ZSgwLC01LjI1KSI+JiN4YTsJCQkJPHRpdGxlIGlkPSJ0aXRsZTU4MzQ3Ij5TaGVldC41OTY1PC90aXRsZT4mI3hhOwkJCQk8ZyBpZD0ic2hhcGU1OTY2LTI2IiB0cmFuc2Zvcm09InRyYW5zbGF0ZSgwLjc1LC0wLjc1KSI+JiN4YTsJCQkJCTx0aXRsZSBpZD0idGl0bGU1ODM0OSI+U2hlZXQuNTk2NjwvdGl0bGU+JiN4YTsJCQkJCTxwYXRoIGlkPSJwYXRoNTgzNTEiIGlua3NjYXBlOmNvbm5lY3Rvci1jdXJ2YXR1cmU9IjAiIHN0eWxlPSJmaWxsOiNERDU5MDA7IiBkPSJNMC43NSwzOC45M0MwLjM0LDM4LjkzLDAsMzguNTksMCwzOC4xOHYtMy43NiAgICAgICBjMC0wLjQxLDAuMzQtMC43NSwwLjc1LTAuNzVIOWMwLjQxLDAsMC43NSwwLjM0LDAuNzUsMC43NXYzLjc2YzAsMC40MS0wLjM0LDAuNzUtMC43NSwwLjc1TDAuNzUsMzguOTN6Ii8+JiN4YTsJCQkJPC9nPiYjeGE7CQkJCTxnIGlkPSJzaGFwZTU5NjctMjgiPiYjeGE7CQkJCQk8dGl0bGUgaWQ9InRpdGxlNTgzNTQiPlNoZWV0LjU5Njc8L3RpdGxlPiYjeGE7CQkJCQk8cGF0aCBpZD0icGF0aDU4MzU2IiBpbmtzY2FwZTpjb25uZWN0b3ItY3VydmF0dXJlPSIwIiBzdHlsZT0iZmlsbDojQTBBMUEyOyIgZD0iTTkuNzUsMzMuNjd2My43NkgxLjV2LTMuNzZIOS43NXogTTkuNzUsMzIuMTcgICAgICAgSDEuNWMtMC44MywwLTEuNSwwLjY4LTEuNSwxLjV2My43NmMwLDAuODIsMC42NywxLjUsMS41LDEuNWg4LjI1YzAuODMsMCwxLjUtMC42OCwxLjUtMS41di0zLjc2ICAgICAgIEMxMS4yNSwzMi44NSwxMC41OCwzMi4xNyw5Ljc1LDMyLjE3eiIvPiYjeGE7CQkJCTwvZz4mI3hhOwkJCTwvZz4mI3hhOwkJCTxnIGlkPSJncm91cDU5NjgtMzAiIHRyYW5zZm9ybT0idHJhbnNsYXRlKDAsLTEwLjUpIj4mI3hhOwkJCQk8dGl0bGUgaWQ9InRpdGxlNTgzNjAiPlNoZWV0LjU5Njg8L3RpdGxlPiYjeGE7CQkJCTxnIGlkPSJzaGFwZTU5NjktMzEiIHRyYW5zZm9ybT0idHJhbnNsYXRlKDAuNzUsLTAuNzUpIj4mI3hhOwkJCQkJPHRpdGxlIGlkPSJ0aXRsZTU4MzYyIj5TaGVldC41OTY5PC90aXRsZT4mI3hhOwkJCQkJPHBhdGggaWQ9InBhdGg1ODM2NCIgaW5rc2NhcGU6Y29ubmVjdG9yLWN1cnZhdHVyZT0iMCIgc3R5bGU9ImZpbGw6I0JBMTQxQTsiIGQ9Ik0wLjc1LDM4LjkzQzAuMzQsMzguOTMsMCwzOC41OSwwLDM4LjE4di0zLjc2ICAgICAgIGMwLTAuNDEsMC4zNC0wLjc1LDAuNzUtMC43NUg5YzAuNDEsMCwwLjc1LDAuMzQsMC43NSwwLjc1djMuNzZjMCwwLjQxLTAuMzQsMC43NS0wLjc1LDAuNzVMMC43NSwzOC45M3oiLz4mI3hhOwkJCQk8L2c+JiN4YTsJCQkJPGcgaWQ9InNoYXBlNTk3MC0zMyI+JiN4YTsJCQkJCTx0aXRsZSBpZD0idGl0bGU1ODM2NyI+U2hlZXQuNTk3MDwvdGl0bGU+JiN4YTsJCQkJCTxwYXRoIGlkPSJwYXRoNTgzNjkiIGlua3NjYXBlOmNvbm5lY3Rvci1jdXJ2YXR1cmU9IjAiIHN0eWxlPSJmaWxsOiNBMEExQTI7IiBkPSJNOS43NSwzMy42N3YzLjc2SDEuNXYtMy43Nkg5Ljc1eiBNOS43NSwzMi4xNyAgICAgICBIMS41Yy0wLjgzLDAtMS41LDAuNjgtMS41LDEuNXYzLjc2YzAsMC44MiwwLjY3LDEuNSwxLjUsMS41aDguMjVjMC44MywwLDEuNS0wLjY4LDEuNS0xLjV2LTMuNzYgICAgICAgQzExLjI1LDMyLjg1LDEwLjU4LDMyLjE3LDkuNzUsMzIuMTd6Ii8+JiN4YTsJCQkJPC9nPiYjeGE7CQkJPC9nPiYjeGE7CQkJPGcgaWQ9Imdyb3VwNTk3MS0zNSIgdHJhbnNmb3JtPSJ0cmFuc2xhdGUoOS43NSkiPiYjeGE7CQkJCTx0aXRsZSBpZD0idGl0bGU1ODM3MyI+U2hlZXQuNTk3MTwvdGl0bGU+JiN4YTsJCQkJPGcgaWQ9InNoYXBlNTk3Mi0zNiIgdHJhbnNmb3JtPSJ0cmFuc2xhdGUoMC43NSwtMC43NSkiPiYjeGE7CQkJCQk8dGl0bGUgaWQ9InRpdGxlNTgzNzUiPlNoZWV0LjU5NzI8L3RpdGxlPiYjeGE7CQkJCQk8cGF0aCBpZD0icGF0aDU4Mzc3IiBpbmtzY2FwZTpjb25uZWN0b3ItY3VydmF0dXJlPSIwIiBzdHlsZT0iZmlsbDojQkExNDFBOyIgZD0iTTAuNzUsMzguOTNDMC4zNCwzOC45MywwLDM4LjU5LDAsMzguMTh2LTMuNzYgICAgICAgYzAtMC40MSwwLjM0LTAuNzUsMC43NS0wLjc1SDljMC40MSwwLDAuNzUsMC4zNCwwLjc1LDAuNzV2My43NmMwLDAuNDEtMC4zNCwwLjc1LTAuNzUsMC43NUwwLjc1LDM4LjkzeiIvPiYjeGE7CQkJCTwvZz4mI3hhOwkJCQk8ZyBpZD0ic2hhcGU1OTczLTM4Ij4mI3hhOwkJCQkJPHRpdGxlIGlkPSJ0aXRsZTU4MzgwIj5TaGVldC41OTczPC90aXRsZT4mI3hhOwkJCQkJPHBhdGggaWQ9InBhdGg1ODM4MiIgaW5rc2NhcGU6Y29ubmVjdG9yLWN1cnZhdHVyZT0iMCIgc3R5bGU9ImZpbGw6I0EwQTFBMjsiIGQ9Ik05Ljc1LDMzLjY3djMuNzZIMS41di0zLjc2SDkuNzV6IE05Ljc1LDMyLjE3ICAgICAgIEgxLjVjLTAuODMsMC0xLjUsMC42OC0xLjUsMS41djMuNzZjMCwwLjgyLDAuNjcsMS41LDEuNSwxLjVoOC4yNWMwLjgzLDAsMS41LTAuNjgsMS41LTEuNXYtMy43NiAgICAgICBDMTEuMjUsMzIuODUsMTAuNTgsMzIuMTcsOS43NSwzMi4xN3oiLz4mI3hhOwkJCQk8L2c+JiN4YTsJCQk8L2c+JiN4YTsJCQk8ZyBpZD0iZ3JvdXA1OTc0LTQwIiB0cmFuc2Zvcm09InRyYW5zbGF0ZSgxOS41LC01LjI1KSI+JiN4YTsJCQkJPHRpdGxlIGlkPSJ0aXRsZTU4Mzg2Ij5TaGVldC41OTc0PC90aXRsZT4mI3hhOwkJCQk8ZyBpZD0ic2hhcGU1OTc1LTQxIiB0cmFuc2Zvcm09InRyYW5zbGF0ZSgwLjc1LC0wLjc1KSI+JiN4YTsJCQkJCTx0aXRsZSBpZD0idGl0bGU1ODM4OCI+U2hlZXQuNTk3NTwvdGl0bGU+JiN4YTsJCQkJCTxwYXRoIGlkPSJwYXRoNTgzOTAiIGlua3NjYXBlOmNvbm5lY3Rvci1jdXJ2YXR1cmU9IjAiIHN0eWxlPSJmaWxsOiNCQTE0MUE7IiBkPSJNMC43NSwzOC45M0MwLjM0LDM4LjkzLDAsMzguNTksMCwzOC4xOHYtMy43NiAgICAgICBjMC0wLjQxLDAuMzQtMC43NSwwLjc1LTAuNzVIOWMwLjQxLDAsMC43NSwwLjM0LDAuNzUsMC43NXYzLjc2YzAsMC40MS0wLjM0LDAuNzUtMC43NSwwLjc1TDAuNzUsMzguOTN6Ii8+JiN4YTsJCQkJPC9nPiYjeGE7CQkJCTxnIGlkPSJzaGFwZTU5NzYtNDMiPiYjeGE7CQkJCQk8dGl0bGUgaWQ9InRpdGxlNTgzOTMiPlNoZWV0LjU5NzY8L3RpdGxlPiYjeGE7CQkJCQk8cGF0aCBpZD0icGF0aDU4Mzk1IiBpbmtzY2FwZTpjb25uZWN0b3ItY3VydmF0dXJlPSIwIiBzdHlsZT0iZmlsbDojQTBBMUEyOyIgZD0iTTkuNzUsMzMuNjd2My43NkgxLjV2LTMuNzZIOS43NXogTTkuNzUsMzIuMTcgICAgICAgSDEuNWMtMC44MywwLTEuNSwwLjY4LTEuNSwxLjV2My43NmMwLDAuODIsMC42NywxLjUsMS41LDEuNWg4LjI1YzAuODMsMCwxLjUtMC42OCwxLjUtMS41di0zLjc2ICAgICAgIEMxMS4yNSwzMi44NSwxMC41OCwzMi4xNyw5Ljc1LDMyLjE3eiIvPiYjeGE7CQkJCTwvZz4mI3hhOwkJCTwvZz4mI3hhOwkJCTxnIGlkPSJncm91cDU5NzctNDUiIHRyYW5zZm9ybT0idHJhbnNsYXRlKDE5LjUsLTEwLjUpIj4mI3hhOwkJCQk8dGl0bGUgaWQ9InRpdGxlNTgzOTkiPlNoZWV0LjU5Nzc8L3RpdGxlPiYjeGE7CQkJCTxnIGlkPSJzaGFwZTU5NzgtNDYiIHRyYW5zZm9ybT0idHJhbnNsYXRlKDAuNzUsLTAuNzUpIj4mI3hhOwkJCQkJPHRpdGxlIGlkPSJ0aXRsZTU4NDAxIj5TaGVldC41OTc4PC90aXRsZT4mI3hhOwkJCQkJPHBhdGggaWQ9InBhdGg1ODQwMyIgaW5rc2NhcGU6Y29ubmVjdG9yLWN1cnZhdHVyZT0iMCIgc3R5bGU9ImZpbGw6I0JBMTQxQTsiIGQ9Ik0wLjc1LDM4LjkzQzAuMzQsMzguOTMsMCwzOC41OSwwLDM4LjE4di0zLjc2ICAgICAgIGMwLTAuNDEsMC4zNC0wLjc1LDAuNzUtMC43NUg5YzAuNDEsMCwwLjc1LDAuMzQsMC43NSwwLjc1djMuNzZjMCwwLjQxLTAuMzQsMC43NS0wLjc1LDAuNzVMMC43NSwzOC45M3oiLz4mI3hhOwkJCQk8L2c+JiN4YTsJCQkJPGcgaWQ9InNoYXBlNTk3OS00OCI+JiN4YTsJCQkJCTx0aXRsZSBpZD0idGl0bGU1ODQwNiI+U2hlZXQuNTk3OTwvdGl0bGU+JiN4YTsJCQkJCTxwYXRoIGlkPSJwYXRoNTg0MDgiIGlua3NjYXBlOmNvbm5lY3Rvci1jdXJ2YXR1cmU9IjAiIHN0eWxlPSJmaWxsOiNBMEExQTI7IiBkPSJNOS43NSwzMy42N3YzLjc2SDEuNXYtMy43Nkg5Ljc1eiBNOS43NSwzMi4xNyAgICAgICBIMS41Yy0wLjgzLDAtMS41LDAuNjgtMS41LDEuNXYzLjc2YzAsMC44MiwwLjY3LDEuNSwxLjUsMS41aDguMjVjMC44MywwLDEuNS0wLjY4LDEuNS0xLjV2LTMuNzYgICAgICAgQzExLjI1LDMyLjg1LDEwLjU4LDMyLjE3LDkuNzUsMzIuMTd6Ii8+JiN4YTsJCQkJPC9nPiYjeGE7CQkJPC9nPiYjeGE7CQkJPGcgaWQ9Imdyb3VwNTk4MC01MCIgdHJhbnNmb3JtPSJ0cmFuc2xhdGUoOS43NSwtNS4yNSkiPiYjeGE7CQkJCTx0aXRsZSBpZD0idGl0bGU1ODQxMiI+U2hlZXQuNTk4MDwvdGl0bGU+JiN4YTsJCQkJPGcgaWQ9InNoYXBlNTk4MS01MSIgdHJhbnNmb3JtPSJ0cmFuc2xhdGUoMC43NSwtMC43NSkiPiYjeGE7CQkJCQk8dGl0bGUgaWQ9InRpdGxlNTg0MTQiPlNoZWV0LjU5ODE8L3RpdGxlPiYjeGE7CQkJCQk8cGF0aCBpZD0icGF0aDU4NDE2IiBpbmtzY2FwZTpjb25uZWN0b3ItY3VydmF0dXJlPSIwIiBzdHlsZT0iZmlsbDojQkExNDFBOyIgZD0iTTAuNzUsMzguOTNDMC4zNCwzOC45MywwLDM4LjU5LDAsMzguMTh2LTMuNzYgICAgICAgYzAtMC40MSwwLjM0LTAuNzUsMC43NS0wLjc1SDljMC40MSwwLDAuNzUsMC4zNCwwLjc1LDAuNzV2My43NmMwLDAuNDEtMC4zNCwwLjc1LTAuNzUsMC43NUwwLjc1LDM4LjkzeiIvPiYjeGE7CQkJCTwvZz4mI3hhOwkJCQk8ZyBpZD0ic2hhcGU1OTgyLTUzIj4mI3hhOwkJCQkJPHRpdGxlIGlkPSJ0aXRsZTU4NDE5Ij5TaGVldC41OTgyPC90aXRsZT4mI3hhOwkJCQkJPHBhdGggaWQ9InBhdGg1ODQyMSIgaW5rc2NhcGU6Y29ubmVjdG9yLWN1cnZhdHVyZT0iMCIgc3R5bGU9ImZpbGw6I0EwQTFBMjsiIGQ9Ik05Ljc1LDMzLjY3djMuNzZIMS41di0zLjc2SDkuNzV6IE05Ljc1LDMyLjE3ICAgICAgIEgxLjVjLTAuODMsMC0xLjUsMC42OC0xLjUsMS41djMuNzZjMCwwLjgyLDAuNjcsMS41LDEuNSwxLjVoOC4yNWMwLjgzLDAsMS41LTAuNjgsMS41LTEuNXYtMy43NiAgICAgICBDMTEuMjUsMzIuODUsMTAuNTgsMzIuMTcsOS43NSwzMi4xN3oiLz4mI3hhOwkJCQk8L2c+JiN4YTsJCQk8L2c+JiN4YTsJCQk8ZyBpZD0iZ3JvdXA1OTgzLTU1IiB0cmFuc2Zvcm09InRyYW5zbGF0ZSgxOS41KSI+JiN4YTsJCQkJPHRpdGxlIGlkPSJ0aXRsZTU4NDI1Ij5TaGVldC41OTgzPC90aXRsZT4mI3hhOwkJCQk8ZyBpZD0ic2hhcGU1OTg0LTU2IiB0cmFuc2Zvcm09InRyYW5zbGF0ZSgwLjc1LC0wLjc1KSI+JiN4YTsJCQkJCTx0aXRsZSBpZD0idGl0bGU1ODQyNyI+U2hlZXQuNTk4NDwvdGl0bGU+JiN4YTsJCQkJCTxwYXRoIGlkPSJwYXRoNTg0MjkiIGlua3NjYXBlOmNvbm5lY3Rvci1jdXJ2YXR1cmU9IjAiIHN0eWxlPSJmaWxsOiNERDU5MDA7IiBkPSJNMC43NSwzOC45M0MwLjM0LDM4LjkzLDAsMzguNTksMCwzOC4xOHYtMy43NiAgICAgICBjMC0wLjQxLDAuMzQtMC43NSwwLjc1LTAuNzVIOWMwLjQxLDAsMC43NSwwLjM0LDAuNzUsMC43NXYzLjc2YzAsMC40MS0wLjM0LDAuNzUtMC43NSwwLjc1TDAuNzUsMzguOTN6Ii8+JiN4YTsJCQkJPC9nPiYjeGE7CQkJCTxnIGlkPSJzaGFwZTU5ODUtNTgiPiYjeGE7CQkJCQk8dGl0bGUgaWQ9InRpdGxlNTg0MzIiPlNoZWV0LjU5ODU8L3RpdGxlPiYjeGE7CQkJCQk8cGF0aCBpZD0icGF0aDU4NDM0IiBpbmtzY2FwZTpjb25uZWN0b3ItY3VydmF0dXJlPSIwIiBzdHlsZT0iZmlsbDojQTBBMUEyOyIgZD0iTTkuNzUsMzMuNjd2My43NkgxLjV2LTMuNzZIOS43NXogTTkuNzUsMzIuMTcgICAgICAgSDEuNWMtMC44MywwLTEuNSwwLjY4LTEuNSwxLjV2My43NmMwLDAuODIsMC42NywxLjUsMS41LDEuNWg4LjI1YzAuODMsMCwxLjUtMC42OCwxLjUtMS41di0zLjc2ICAgICAgIEMxMS4yNSwzMi44NSwxMC41OCwzMi4xNyw5Ljc1LDMyLjE3eiIvPiYjeGE7CQkJCTwvZz4mI3hhOwkJCTwvZz4mI3hhOwkJCTxnIGlkPSJncm91cDU5ODYtNjAiPiYjeGE7CQkJCTx0aXRsZSBpZD0idGl0bGU1ODQzOCI+U2hlZXQuNTk4NjwvdGl0bGU+JiN4YTsJCQkJPGcgaWQ9InNoYXBlNTk4Ny02MSIgdHJhbnNmb3JtPSJ0cmFuc2xhdGUoMC43NSwtMC43NSkiPiYjeGE7CQkJCQk8dGl0bGUgaWQ9InRpdGxlNTg0NDAiPlNoZWV0LjU5ODc8L3RpdGxlPiYjeGE7CQkJCQk8cGF0aCBpZD0icGF0aDU4NDQyIiBpbmtzY2FwZTpjb25uZWN0b3ItY3VydmF0dXJlPSIwIiBzdHlsZT0iZmlsbDojQkExNDFBOyIgZD0iTTAuNzUsMzguOTNDMC4zNCwzOC45MywwLDM4LjU5LDAsMzguMTh2LTMuNzYgICAgICAgYzAtMC40MSwwLjM0LTAuNzUsMC43NS0wLjc1SDljMC40MSwwLDAuNzUsMC4zNCwwLjc1LDAuNzV2My43NmMwLDAuNDEtMC4zNCwwLjc1LTAuNzUsMC43NUwwLjc1LDM4LjkzeiIvPiYjeGE7CQkJCTwvZz4mI3hhOwkJCQk8ZyBpZD0ic2hhcGU1OTg4LTYzIj4mI3hhOwkJCQkJPHRpdGxlIGlkPSJ0aXRsZTU4NDQ1Ij5TaGVldC41OTg4PC90aXRsZT4mI3hhOwkJCQkJPHBhdGggaWQ9InBhdGg1ODQ0NyIgaW5rc2NhcGU6Y29ubmVjdG9yLWN1cnZhdHVyZT0iMCIgc3R5bGU9ImZpbGw6I0EwQTFBMjsiIGQ9Ik05Ljc1LDMzLjY3djMuNzZIMS41di0zLjc2SDkuNzV6IE05Ljc1LDMyLjE3ICAgICAgIEgxLjVjLTAuODMsMC0xLjUsMC42OC0xLjUsMS41djMuNzZjMCwwLjgyLDAuNjcsMS41LDEuNSwxLjVoOC4yNWMwLjgzLDAsMS41LTAuNjgsMS41LTEuNXYtMy43NiAgICAgICBDMTEuMjUsMzIuODUsMTAuNTgsMzIuMTcsOS43NSwzMi4xN3oiLz4mI3hhOwkJCQk8L2c+JiN4YTsJCQk8L2c+JiN4YTsJCTwvZz4mI3hhOwk8L2c+JiN4YTs8L2c+JiN4YTs8L3N2Zz4=;whiteSpace=wrap;horizontal=1;fontColor=#000000;fontFamily=Comic Sans MS;spacingRight=0;spacingLeft=80;" parent="1" vertex="1">
          <mxGeometry x="150" y="387" width="93.5" height="93.5" as="geometry" />
        </mxCell>
        <mxCell id="NRgmB2DWNI1tFP4q7ESX-1" value="&lt;font style=&quot;font-size: 25px&quot;&gt;On-Premises Network&lt;/font&gt;" style="rounded=1;whiteSpace=wrap;html=1;shadow=0;strokeWidth=2;fillColor=#6d8764;fontSize=20;align=center;strokeColor=#000000;arcSize=3;gradientDirection=north;horizontal=1;verticalAlign=top;fontFamily=Comic Sans MS;labelBorderColor=none;fontColor=#ffffff;" parent="1" vertex="1">
          <mxGeometry x="-800" y="70" width="700" height="720" as="geometry" />
        </mxCell>
        <mxCell id="NRgmB2DWNI1tFP4q7ESX-2" style="edgeStyle=orthogonalEdgeStyle;rounded=0;orthogonalLoop=1;jettySize=auto;html=1;exitX=0.5;exitY=1;exitDx=0;exitDy=0;strokeColor=#FFFFFF;" parent="1" edge="1">
          <mxGeometry relative="1" as="geometry">
            <mxPoint x="-400" y="643" as="sourcePoint" />
            <mxPoint x="-400" y="643" as="targetPoint" />
          </mxGeometry>
        </mxCell>
        <mxCell id="NRgmB2DWNI1tFP4q7ESX-18" value="Virtual&lt;br&gt;Machines" style="rounded=1;whiteSpace=wrap;shadow=1;strokeWidth=2;fillColor=#9CF2FF;fontSize=13;fontColor=#000000;align=center;strokeColor=default;arcSize=3;verticalAlign=top;labelBorderColor=none;sketch=0;glass=0;html=1;fontFamily=Comic Sans MS;gradientColor=#ffffff;" parent="1" vertex="1">
          <mxGeometry x="-435" y="143.5" width="120" height="490" as="geometry" />
        </mxCell>
        <mxCell id="NRgmB2DWNI1tFP4q7ESX-19" style="edgeStyle=none;rounded=0;orthogonalLoop=1;jettySize=auto;html=1;exitX=0.5;exitY=1;exitDx=0;exitDy=0;fontFamily=Comic Sans MS;fontColor=#000000;strokeColor=#FFFFFF;" parent="1" source="NRgmB2DWNI1tFP4q7ESX-18" target="NRgmB2DWNI1tFP4q7ESX-18" edge="1">
          <mxGeometry relative="1" as="geometry" />
        </mxCell>
        <mxCell id="NRgmB2DWNI1tFP4q7ESX-20" value="File Server" style="sketch=0;aspect=fixed;html=1;points=[];align=center;image;fontSize=12;image=img/lib/mscae/Virtual_Machine.svg;labelBackgroundColor=none;fontFamily=Comic Sans MS;fontColor=#000000;fillColor=#99CCFF;" parent="1" vertex="1">
          <mxGeometry x="-400" y="198" width="50" height="46" as="geometry" />
        </mxCell>
        <mxCell id="NRgmB2DWNI1tFP4q7ESX-22" value="DNS&lt;br&gt;Server" style="sketch=0;aspect=fixed;html=1;points=[];align=center;image;fontSize=12;image=img/lib/mscae/Virtual_Machine.svg;labelBackgroundColor=none;fontFamily=Comic Sans MS;fontColor=#000000;fillColor=#99CCFF;" parent="1" vertex="1">
          <mxGeometry x="-400" y="423.5" width="50" height="46" as="geometry" />
        </mxCell>
        <mxCell id="NRgmB2DWNI1tFP4q7ESX-24" value="WSUS&lt;br&gt;Server" style="sketch=0;aspect=fixed;html=1;points=[];align=center;image;fontSize=12;image=img/lib/mscae/Virtual_Machine.svg;labelBackgroundColor=none;fontFamily=Comic Sans MS;fontColor=#000000;fillColor=#99CCFF;" parent="1" vertex="1">
          <mxGeometry x="-400.59" y="522" width="50" height="46" as="geometry" />
        </mxCell>
        <mxCell id="NRgmB2DWNI1tFP4q7ESX-27" value="Active&lt;br&gt;Directory&lt;br&gt;Domain &lt;br&gt;Services" style="aspect=fixed;perimeter=ellipsePerimeter;html=1;align=center;shadow=0;dashed=0;spacingTop=3;image;image=img/lib/active_directory/active_directory.svg;labelBackgroundColor=none;fontFamily=Comic Sans MS;fontColor=#000000;fillColor=#99CCFF;" parent="1" vertex="1">
          <mxGeometry x="-405" y="288" width="58.83" height="50" as="geometry" />
        </mxCell>
        <mxCell id="NRgmB2DWNI1tFP4q7ESX-39" value="" style="line;strokeWidth=2;html=1;shadow=0;glass=0;labelBackgroundColor=none;sketch=0;fontFamily=Comic Sans MS;fontSize=13;fontColor=#0883FF;fillColor=#659645;gradientColor=#8AFF8A;gradientDirection=north;verticalAlign=top;" parent="1" vertex="1">
          <mxGeometry x="-475" y="367.5" width="40" height="10" as="geometry" />
        </mxCell>
        <mxCell id="NRgmB2DWNI1tFP4q7ESX-41" value="" style="line;strokeWidth=2;html=1;shadow=0;glass=0;labelBackgroundColor=none;sketch=0;fontFamily=Comic Sans MS;fontSize=13;fontColor=#0883FF;fillColor=#2151EF;gradientDirection=north;verticalAlign=top;perimeterSpacing=2;" parent="1" vertex="1">
          <mxGeometry x="-313" y="427" width="83" height="10" as="geometry" />
        </mxCell>
        <mxCell id="NRgmB2DWNI1tFP4q7ESX-45" value="&lt;font color=&quot;#e7dfdf&quot;&gt;Windows 10&lt;br&gt;Clients&lt;/font&gt;" style="shape=image;verticalLabelPosition=bottom;labelBackgroundColor=none;verticalAlign=top;aspect=fixed;imageAspect=0;image=data:image/svg+xml,PHN2ZyB4bWxuczpjYz0iaHR0cDovL2NyZWF0aXZlY29tbW9ucy5vcmcvbnMjIiB4bWxuczpkYz0iaHR0cDovL3B1cmwub3JnL2RjL2VsZW1lbnRzLzEuMS8iIHhtbG5zOmlua3NjYXBlPSJodHRwOi8vd3d3Lmlua3NjYXBlLm9yZy9uYW1lc3BhY2VzL2lua3NjYXBlIiB4bWxuczpyZGY9Imh0dHA6Ly93d3cudzMub3JnLzE5OTkvMDIvMjItcmRmLXN5bnRheC1ucyMiIHhtbG5zOnNvZGlwb2RpPSJodHRwOi8vc29kaXBvZGkuc291cmNlZm9yZ2UubmV0L0RURC9zb2RpcG9kaS0wLmR0ZCIgeG1sbnM6c3ZnPSJodHRwOi8vd3d3LnczLm9yZy8yMDAwL3N2ZyIgeG1sbnM9Imh0dHA6Ly93d3cudzMub3JnLzIwMDAvc3ZnIiB4bWxuczp4bGluaz0iaHR0cDovL3d3dy53My5vcmcvMTk5OS94bGluayIgdmVyc2lvbj0iMS4xIiBpZD0ic3ZnMTkxOCIgaW5rc2NhcGU6dmVyc2lvbj0iMC45Mi4zICgyNDA1NTQ2LCAyMDE4LTAzLTExKSIgc29kaXBvZGk6ZG9jbmFtZT0iZGVza3RvcC5zdmciIHg9IjBweCIgeT0iMHB4IiB2aWV3Qm94PSIwIDAgNTUuNjYgMzMuMzMiIHN0eWxlPSJlbmFibGUtYmFja2dyb3VuZDpuZXcgMCAwIDU1LjY2IDMzLjMzOyIgeG1sOnNwYWNlPSJwcmVzZXJ2ZSI+JiN4YTs8c29kaXBvZGk6bmFtZWR2aWV3IGJvcmRlcmNvbG9yPSIjNjY2NjY2IiBib3JkZXJvcGFjaXR5PSIxIiBmaXQtbWFyZ2luLWJvdHRvbT0iMCIgZml0LW1hcmdpbi1sZWZ0PSIwIiBmaXQtbWFyZ2luLXJpZ2h0PSIwIiBmaXQtbWFyZ2luLXRvcD0iMCIgZ3JpZHRvbGVyYW5jZT0iMTAiIGd1aWRldG9sZXJhbmNlPSIxMCIgaWQ9Im5hbWVkdmlldzE5MjAiIGlua3NjYXBlOmN1cnJlbnQtbGF5ZXI9InN2ZzE5MTgiIGlua3NjYXBlOmN4PSI1NC43MjUwMzkiIGlua3NjYXBlOmN5PSIxNy4zOTkwNDQiIGlua3NjYXBlOnBhZ2VvcGFjaXR5PSIwIiBpbmtzY2FwZTpwYWdlc2hhZG93PSIyIiBpbmtzY2FwZTp3aW5kb3ctaGVpZ2h0PSIxMDE3IiBpbmtzY2FwZTp3aW5kb3ctbWF4aW1pemVkPSIxIiBpbmtzY2FwZTp3aW5kb3ctd2lkdGg9IjE5MjAiIGlua3NjYXBlOndpbmRvdy14PSItOCIgaW5rc2NhcGU6d2luZG93LXk9Ii04IiBpbmtzY2FwZTp6b29tPSIxMS4xMTE0NjQiIG9iamVjdHRvbGVyYW5jZT0iMTAiIHBhZ2Vjb2xvcj0iI2ZmZmZmZiIgc2hvd2dyaWQ9ImZhbHNlIj4mI3hhOwk8L3NvZGlwb2RpOm5hbWVkdmlldz4mI3hhOzxnIGlkPSJncm91cDM1MTgtMyIgdHJhbnNmb3JtPSJ0cmFuc2xhdGUoMTAuMTE4ODU4LC04LjA0Njc1MikiPiYjeGE7CTx0aXRsZSBpZD0idGl0bGUxNzYyIj5nOTk5NDwvdGl0bGU+JiN4YTsJPGcgaWQ9Imdyb3VwMzUxOS00IiB0cmFuc2Zvcm09InRyYW5zbGF0ZSg1LjM1NzA2KSI+JiN4YTsJCTx0aXRsZSBpZD0idGl0bGUxNzY0Ij5nOTk4MDwvdGl0bGU+JiN4YTsJCTxnIGlkPSJzaGFwZTM1MjAtNSIgdHJhbnNmb3JtPSJ0cmFuc2xhdGUoMCwtMC44OTI4NDQpIj4mI3hhOwkJCTx0aXRsZSBpZD0idGl0bGUxNzY2Ij5wb2x5Z29uOTk3NDwvdGl0bGU+JiN4YTsJCQk8cGF0aCBpZD0icGF0aDE3NjgiIGlua3NjYXBlOmNvbm5lY3Rvci1jdXJ2YXR1cmU9IjAiIHN0eWxlPSJmaWxsOiM4MDgwODA7IiBkPSJNMi4xOCwzOWgzMC42bDIuMDQsMi4zOEgwTDIuMTgsMzl6Ii8+JiN4YTsJCTwvZz4mI3hhOwkJPGcgaWQ9InNoYXBlMzUyMS03IiB0cmFuc2Zvcm09InRyYW5zbGF0ZSgzLjI3Mzc2LC0xLjE5MDQ2KSI+JiN4YTsJCQk8dGl0bGUgaWQ9InRpdGxlMTc3MSI+cG9seWdvbjk5NzY8L3RpdGxlPiYjeGE7CQkJPHBhdGggaWQ9InBhdGgxNzczIiBpbmtzY2FwZTpjb25uZWN0b3ItY3VydmF0dXJlPSIwIiBzdHlsZT0iZmlsbDojMkUyRTJFOyIgZD0iTTAuOTksMzkuODloMjYuMzJsMC45NiwxLjQ5SDBMMC45OSwzOS44OXoiLz4mI3hhOwkJPC9nPiYjeGE7CQk8ZyBpZD0ic2hhcGUzNTIyLTkiPiYjeGE7CQkJPHRpdGxlIGlkPSJ0aXRsZTE3NzYiPnBhdGg5OTc4PC90aXRsZT4mI3hhOwkJCTxwYXRoIGlkPSJwYXRoMTc3OCIgaW5rc2NhcGU6Y29ubmVjdG9yLWN1cnZhdHVyZT0iMCIgc3R5bGU9ImZpbGw6IzFBMUExQTsiIGQ9Ik0zMy4zNyw0MS4zOEgxLjQ5QzAuMDEsNDEuMzgsMCw0MC41MSwwLDQwLjUxICAgICBoMzQuNzRDMzQuNzQsNDAuNTEsMzQuOTEsNDEuMzgsMzMuMzcsNDEuMzh6Ii8+JiN4YTsJCTwvZz4mI3hhOwk8L2c+JiN4YTsJPGcgaWQ9InNoYXBlMzUyMy0xMSIgdHJhbnNmb3JtPSJ0cmFuc2xhdGUoMTkuNjQyNiwtNC45MTA2NCkiPiYjeGE7CQk8dGl0bGUgaWQ9InRpdGxlMTc4MiI+cG9seWdvbjk5ODI8L3RpdGxlPiYjeGE7CQk8cGF0aCBpZD0icGF0aDE3ODQiIGlua3NjYXBlOmNvbm5lY3Rvci1jdXJ2YXR1cmU9IjAiIHN0eWxlPSJmaWxsOiMxQTFBMUE7IiBkPSJNMC42LDM3LjIxaDQuNzZsMC4wNCwwLjNsMC41NSwzLjg3SDBMMC42LDM3LjIxeiIvPiYjeGE7CTwvZz4mI3hhOwk8ZyBpZD0ic2hhcGUzNTI0LTEzIiB0cmFuc2Zvcm09InRyYW5zbGF0ZSgyMi42MTg3LC00LjkxMDY0KSI+JiN4YTsJCTx0aXRsZSBpZD0idGl0bGUxNzg3Ij5wb2x5Z29uOTk4NDwvdGl0bGU+JiN4YTsJCTxwYXRoIGlkPSJwYXRoMTc4OSIgaW5rc2NhcGU6Y29ubmVjdG9yLWN1cnZhdHVyZT0iMCIgc3R5bGU9ImZpbGw6IzJFMkUyRTsiIGQ9Ik0wLDM3LjUxaDIuNDJsMC41NiwzLjg3SDBWMzcuNTF6Ii8+JiN4YTsJPC9nPiYjeGE7CTxnIGlkPSJzaGFwZTM1MjUtMTUiIHRyYW5zZm9ybT0idHJhbnNsYXRlKDAsLTguMzMzMjEpIj4mI3hhOwkJPHRpdGxlIGlkPSJ0aXRsZTE3OTIiPnJlY3Q5OTg2PC90aXRsZT4mI3hhOwkJPHBhdGggaWQ9InBhdGgxNzk0IiBpbmtzY2FwZTpjb25uZWN0b3ItY3VydmF0dXJlPSIwIiBzdHlsZT0iZmlsbDojMjIxRjFGOyIgZD0iTTAsNDAuMTljMCwwLjY2LDAuNTMsMS4xOSwxLjE5LDEuMTloNDMuMTUgICAgYzAuNjYsMC4wMSwxLjE5LTAuNTIsMS4yLTEuMThjMCwwLDAtMC4wMSwwLTAuMDFWMTcuNTdjMC0wLjY2LTAuNTMtMS4xOS0xLjE5LTEuMTljMCwwLTAuMDEsMC0wLjAxLDBIMS4xOSAgICBDMC41MywxNi4zOCwwLDE2LjkxLDAsMTcuNTdWNDAuMTl6Ii8+JiN4YTsJPC9nPiYjeGE7CTxnIGlkPSJzaGFwZTM1MjYtMTciIHRyYW5zZm9ybT0idHJhbnNsYXRlKDEuMTkwNDYsLTkuNTIzNjcpIj4mI3hhOwkJPHRpdGxlIGlkPSJ0aXRsZTE3OTciPnJlY3Q5OTg4PC90aXRsZT4mI3hhOwkJPHJlY3QgaWQ9InJlY3QxNzk5IiB4PSIwIiB5PSIxOC43NiIgc3R5bGU9ImZpbGw6IzgwQkNFQjsiIHdpZHRoPSI0My4xNSIgaGVpZ2h0PSIyMi42MiIvPiYjeGE7CTwvZz4mI3hhOwk8ZyBpZD0ic2hhcGUzNTI3LTE5IiB0cmFuc2Zvcm09InRyYW5zbGF0ZSgxMy4zOTI3LC0zLjg2ODk5KSI+JiN4YTsJCTx0aXRsZSBpZD0idGl0bGUxODAyIj5wYXRoOTk5MDwvdGl0bGU+JiN4YTsJCTxwYXRoIGlkPSJwYXRoMTgwNCIgaW5rc2NhcGU6Y29ubmVjdG9yLWN1cnZhdHVyZT0iMCIgc3R5bGU9ImZpbGw6IzJFMkUyRTsiIGQ9Ik0xOC4wOSw0MS4zOEgwLjY2QzAuMzEsNDEuNCwwLjAyLDQxLjEzLDAsNDAuNzggICAgYzAsMC4wMSwxLjExLTAuODksMS4xNy0wLjg5aDE2LjEyYzAuNjcsMCwxLjQ2LDAuOSwxLjQ2LDAuOUMxOC43Myw0MS4xNCwxOC40NCw0MS40LDE4LjA5LDQxLjM4TDE4LjA5LDQxLjM4eiIvPiYjeGE7CTwvZz4mI3hhOwk8ZyBpZD0ic2hhcGUzNTI4LTIxIiB0cmFuc2Zvcm09InRyYW5zbGF0ZSgzMi43Mzc2LC0yMC41MzU0KSI+JiN4YTsJCTx0aXRsZSBpZD0idGl0bGUxODA3Ij5wb2x5Z29uOTk5MjwvdGl0bGU+JiN4YTsJCTxwYXRoIGlkPSJwYXRoMTgwOSIgaW5rc2NhcGU6Y29ubmVjdG9yLWN1cnZhdHVyZT0iMCIgc3R5bGU9ImZpbGw6I0FBRDJGMjsiIGQ9Ik0wLDI5Ljc3aDExLjYxdjExLjYxTDAsMjkuNzd6Ii8+JiN4YTsJPC9nPiYjeGE7PC9nPiYjeGE7PGcgaWQ9InNoYXBlMzUyOS0yMyIgdHJhbnNmb3JtPSJ0cmFuc2xhdGUoNy43Mzc5Mzc4LC02LjI2MTA2MikiPiYjeGE7CTx0aXRsZSBpZD0idGl0bGUxODEzIj5yZWN0OTk5NjwvdGl0bGU+JiN4YTsJPHJlY3QgaWQ9InJlY3QxODE1IiB4PSIwIiB5PSIxLjUiIHN0eWxlPSJmaWxsOm5vbmU7IiB3aWR0aD0iNTAiIGhlaWdodD0iMzkuODgiLz4mI3hhOzwvZz4mI3hhOzxnIGlkPSJzaGFwZTM1MzEtMjYiIHRyYW5zZm9ybT0idHJhbnNsYXRlKC00LjIyMzMzMTNlLTUsLTguMzQ0MzYyKSI+JiN4YTsJPHRpdGxlIGlkPSJ0aXRsZTE4MjEiPnJlY3QxMDAwMDwvdGl0bGU+JiN4YTsJPHJlY3QgaWQ9InJlY3QxODIzIiB4PSIwIiB5PSIxNCIgc3R5bGU9ImZpbGw6IzY2NjY2NjsiIHdpZHRoPSIxMy42OSIgaGVpZ2h0PSIyNy4zOCIvPiYjeGE7PC9nPiYjeGE7PGcgaWQ9Imdyb3VwMzUzMi0yOCIgdHJhbnNmb3JtPSJ0cmFuc2xhdGUoMC4yMzIwOTY3NywtOC4zNDQzNjIpIj4mI3hhOwk8dGl0bGUgaWQ9InRpdGxlMTgyNiI+ZzEwMDE0PC90aXRsZT4mI3hhOwk8ZyBpZD0ic2hhcGUzNTMzLTI5IiB0cmFuc2Zvcm09InRyYW5zbGF0ZSg4LjM5ODY4KSI+JiN4YTsJCTx0aXRsZSBpZD0idGl0bGUxODI4Ij5yZWN0MTAwMDI8L3RpdGxlPiYjeGE7CQk8cmVjdCBpZD0icmVjdDE4MzAiIHg9IjAiIHk9IjE0IiBzdHlsZT0iZmlsbDojNEQ0RDREOyIgd2lkdGg9IjUuMDYiIGhlaWdodD0iMjcuMzgiLz4mI3hhOwk8L2c+JiN4YTsJPGcgaWQ9InNoYXBlMzUzNC0zMSIgdHJhbnNmb3JtPSJ0cmFuc2xhdGUoMCwtMjMuOTgxOCkiPiYjeGE7CQk8dGl0bGUgaWQ9InRpdGxlMTgzMyI+cG9seWdvbjEwMDA0PC90aXRsZT4mI3hhOwkJPHJlY3QgaWQ9InJlY3QxODM1IiB4PSIwIiB5PSI0MC42NCIgc3R5bGU9ImZpbGw6bm9uZTsiIHdpZHRoPSI5LjE1IiBoZWlnaHQ9IjAuNzQiLz4mI3hhOwk8L2c+JiN4YTsJPGcgaWQ9InNoYXBlMzUzNS0zMyIgdHJhbnNmb3JtPSJ0cmFuc2xhdGUoMCwtMjMuOTgxOCkiPiYjeGE7CQk8dGl0bGUgaWQ9InRpdGxlMTgzOCI+cG9seWxpbmUxMDAwNjwvdGl0bGU+JiN4YTsJCTxyZWN0IGlkPSJyZWN0MTg0MCIgeD0iMCIgeT0iNDAuNjQiIHN0eWxlPSJmaWxsOm5vbmU7IiB3aWR0aD0iOS4xNSIgaGVpZ2h0PSIwLjc0Ii8+JiN4YTsJPC9nPiYjeGE7CTxnIGlkPSJzaGFwZTM1MzYtMzUiIHRyYW5zZm9ybT0idHJhbnNsYXRlKDguMTAxMDcsLTI0LjEwNjgpIj4mI3hhOwkJPHRpdGxlIGlkPSJ0aXRsZTE4NDMiPnJlY3QxMDAwODwvdGl0bGU+JiN4YTsJCTxyZWN0IGlkPSJyZWN0MTg0NSIgeD0iMCIgeT0iNDAuNzkiIHdpZHRoPSI0Ljc2IiBoZWlnaHQ9IjAuNiIvPiYjeGE7CTwvZz4mI3hhOwk8ZyBpZD0ic2hhcGUzNTM3LTM3IiB0cmFuc2Zvcm09InRyYW5zbGF0ZSgwLjM2MzA5LC0yNC4xMDY4KSI+JiN4YTsJCTx0aXRsZSBpZD0idGl0bGUxODQ4Ij5yZWN0MTAwMTA8L3RpdGxlPiYjeGE7CQk8cmVjdCBpZD0icmVjdDE4NTAiIHg9IjAiIHk9IjQwLjc5IiBzdHlsZT0iZmlsbDojMzMzMzMzOyIgd2lkdGg9IjUuMDYiIGhlaWdodD0iMC42Ii8+JiN4YTsJPC9nPiYjeGE7CTxnIGlkPSJzaGFwZTM1MzgtMzkiIHRyYW5zZm9ybT0idHJhbnNsYXRlKDUuNDIyNTQsLTI0LjEwNjgpIj4mI3hhOwkJPHRpdGxlIGlkPSJ0aXRsZTE4NTMiPnBvbHlnb24xMDAxMjwvdGl0bGU+JiN4YTsJCTxyZWN0IGlkPSJyZWN0MTg1NSIgeD0iMCIgeT0iNDAuNzkiIHN0eWxlPSJmaWxsOiNENEU4Rjg7IiB3aWR0aD0iMi45OCIgaGVpZ2h0PSIwLjYiLz4mI3hhOwk8L2c+JiN4YTs8L2c+JiN4YTs8ZyBpZD0ic2hhcGUzNTM5LTQxIiB0cmFuc2Zvcm09InRyYW5zbGF0ZSgtNC4yMjMzMzEzZS01LC0zMi40NTExNjIpIj4mI3hhOwk8dGl0bGUgaWQ9InRpdGxlMTg1OSI+cmVjdDEwMDE2PC90aXRsZT4mI3hhOwk8cmVjdCBpZD0icmVjdDE4NjEiIHg9IjAiIHk9IjQwLjc5IiBzdHlsZT0iZmlsbDojRkZGRkZGOyIgd2lkdGg9IjAuNiIgaGVpZ2h0PSIwLjYiLz4mI3hhOzwvZz4mI3hhOzxnIGlkPSJzaGFwZTM1NDAtNDMiIHRyYW5zZm9ybT0idHJhbnNsYXRlKDguMzMzMTY3OCwtMzAuNjY1NDYyKSI+JiN4YTsJPHRpdGxlIGlkPSJ0aXRsZTE4NjQiPnJlY3QxMDAxODwvdGl0bGU+JiN4YTsJPHJlY3QgaWQ9InJlY3QxODY2IiB4PSIwIiB5PSI0MC43OSIgd2lkdGg9IjQuNzYiIGhlaWdodD0iMC42Ii8+JiN4YTs8L2c+JiN4YTs8ZyBpZD0ic2hhcGUzNTQxLTQ1IiB0cmFuc2Zvcm09InRyYW5zbGF0ZSgwLjU5NTE4Njc3LC0zMC42NjU0NjIpIj4mI3hhOwk8dGl0bGUgaWQ9InRpdGxlMTg2OSI+cmVjdDEwMDIwPC90aXRsZT4mI3hhOwk8cmVjdCBpZD0icmVjdDE4NzEiIHg9IjAiIHk9IjQwLjc5IiBzdHlsZT0iZmlsbDojMzMzMzMzOyIgd2lkdGg9IjUuMDYiIGhlaWdodD0iMC42Ii8+JiN4YTs8L2c+JiN4YTs8ZyBpZD0ic2hhcGUzNTQyLTQ3IiB0cmFuc2Zvcm09InRyYW5zbGF0ZSg1LjY1NDYzNzgsLTMwLjY2NTQ2MikiPiYjeGE7CTx0aXRsZSBpZD0idGl0bGUxODc0Ij5wb2x5Z29uMTAwMjI8L3RpdGxlPiYjeGE7CTxyZWN0IGlkPSJyZWN0MTg3NiIgeD0iMCIgeT0iNDAuNzkiIHN0eWxlPSJmaWxsOiNENEU4Rjg7IiB3aWR0aD0iMi45OCIgaGVpZ2h0PSIwLjYiLz4mI3hhOzwvZz4mI3hhOzxnIGlkPSJzaGFwZTM1NDMtNDkiIHRyYW5zZm9ybT0idHJhbnNsYXRlKC00LjIyMzMzMTNlLTUsLTMwLjY2NTQ2MikiPiYjeGE7CTx0aXRsZSBpZD0idGl0bGUxODc5Ij5yZWN0MTAwMjQ8L3RpdGxlPiYjeGE7CTxyZWN0IGlkPSJyZWN0MTg4MSIgeD0iMCIgeT0iNDAuNzkiIHN0eWxlPSJmaWxsOiNGRkZGRkY7IiB3aWR0aD0iMC42IiBoZWlnaHQ9IjAuNiIvPiYjeGE7PC9nPiYjeGE7PGcgaWQ9InNoYXBlMzU0NC01MSIgdHJhbnNmb3JtPSJ0cmFuc2xhdGUoOC4zMzMxNjc4LC0yOC44Nzk3NjIpIj4mI3hhOwk8dGl0bGUgaWQ9InRpdGxlMTg4NCI+cmVjdDEwMDI2PC90aXRsZT4mI3hhOwk8cmVjdCBpZD0icmVjdDE4ODYiIHg9IjAiIHk9IjQwLjc5IiB3aWR0aD0iNC43NiIgaGVpZ2h0PSIwLjYiLz4mI3hhOzwvZz4mI3hhOzxnIGlkPSJzaGFwZTM1NDUtNTMiIHRyYW5zZm9ybT0idHJhbnNsYXRlKDAuNTk1MTg2NzcsLTI4Ljg3OTc2MikiPiYjeGE7CTx0aXRsZSBpZD0idGl0bGUxODg5Ij5yZWN0MTAwMjg8L3RpdGxlPiYjeGE7CTxyZWN0IGlkPSJyZWN0MTg5MSIgeD0iMCIgeT0iNDAuNzkiIHN0eWxlPSJmaWxsOiMzMzMzMzM7IiB3aWR0aD0iNS4wNiIgaGVpZ2h0PSIwLjYiLz4mI3hhOzwvZz4mI3hhOzxnIGlkPSJzaGFwZTM1NDYtNTUiIHRyYW5zZm9ybT0idHJhbnNsYXRlKDUuNjU0NjM3OCwtMjguODc5NzYyKSI+JiN4YTsJPHRpdGxlIGlkPSJ0aXRsZTE4OTQiPnBvbHlnb24xMDAzMDwvdGl0bGU+JiN4YTsJPHJlY3QgaWQ9InJlY3QxODk2IiB4PSIwIiB5PSI0MC43OSIgc3R5bGU9ImZpbGw6I0Q0RThGODsiIHdpZHRoPSIyLjk4IiBoZWlnaHQ9IjAuNiIvPiYjeGE7PC9nPiYjeGE7PGcgaWQ9InNoYXBlMzU0Ny01NyIgdHJhbnNmb3JtPSJ0cmFuc2xhdGUoLTQuMjIzMzMxM2UtNSwtMjguODc5NzYyKSI+JiN4YTsJPHRpdGxlIGlkPSJ0aXRsZTE4OTkiPnJlY3QxMDAzMjwvdGl0bGU+JiN4YTsJPHJlY3QgaWQ9InJlY3QxOTAxIiB4PSIwIiB5PSI0MC43OSIgc3R5bGU9ImZpbGw6I0ZGRkZGRjsiIHdpZHRoPSIwLjYiIGhlaWdodD0iMC42Ii8+JiN4YTs8L2c+JiN4YTs8ZyBpZD0ic2hhcGUzNTQ4LTU5IiB0cmFuc2Zvcm09InRyYW5zbGF0ZSgtNC4yMjMzMzEzZS01LC0yNy4wOTQwNjIpIj4mI3hhOwk8dGl0bGUgaWQ9InRpdGxlMTkwNCI+cmVjdDEwMDM0PC90aXRsZT4mI3hhOwk8cmVjdCBpZD0icmVjdDE5MDYiIHg9IjAiIHk9IjQwLjc5IiBzdHlsZT0iZmlsbDojRkZGRkZGOyIgd2lkdGg9IjAuNiIgaGVpZ2h0PSIwLjYiLz4mI3hhOzwvZz4mI3hhOzxnIGlkPSJzaGFwZTM1NDktNjEiIHRyYW5zZm9ybT0idHJhbnNsYXRlKC00LjIyMzMzMTNlLTUsLTI1LjMwODM2MikiPiYjeGE7CTx0aXRsZSBpZD0idGl0bGUxOTA5Ij5yZWN0MTAwMzY8L3RpdGxlPiYjeGE7CTxyZWN0IGlkPSJyZWN0MTkxMSIgeD0iMCIgeT0iNDAuNzkiIHN0eWxlPSJmaWxsOiNGRkZGRkY7IiB3aWR0aD0iMC42IiBoZWlnaHQ9IjAuNiIvPiYjeGE7PC9nPiYjeGE7PC9zdmc+;shadow=1;glass=0;sketch=0;fontFamily=Comic Sans MS;fontSize=13;fontColor=#001401;strokeColor=default;strokeWidth=2;fillColor=#719651;gradientColor=none;gradientDirection=north;html=1;" parent="1" vertex="1">
          <mxGeometry x="-435" y="662" width="106.91" height="63" as="geometry" />
        </mxCell>
        <mxCell id="NRgmB2DWNI1tFP4q7ESX-47" value="" style="line;strokeWidth=2;html=1;shadow=0;glass=0;labelBackgroundColor=none;sketch=0;fontFamily=Comic Sans MS;fontSize=12;fontColor=#001701;fillColor=#719651;gradientColor=none;gradientDirection=north;verticalAlign=top;dashed=1;" parent="1" vertex="1">
          <mxGeometry x="-649" y="361" width="126" height="10" as="geometry" />
        </mxCell>
        <mxCell id="NRgmB2DWNI1tFP4q7ESX-48" value="" style="line;strokeWidth=2;direction=south;html=1;shadow=0;glass=0;dashed=1;labelBackgroundColor=none;sketch=0;fontFamily=Comic Sans MS;fontSize=12;fontColor=#001701;fillColor=#719651;gradientColor=none;gradientDirection=north;verticalAlign=top;" parent="1" vertex="1">
          <mxGeometry x="-599" y="367" width="10" height="325" as="geometry" />
        </mxCell>
        <mxCell id="NRgmB2DWNI1tFP4q7ESX-51" value="" style="line;strokeWidth=2;html=1;shadow=0;glass=0;dashed=1;labelBackgroundColor=none;sketch=0;fontFamily=Comic Sans MS;fontSize=12;fontColor=#001701;fillColor=#719651;gradientColor=none;gradientDirection=north;verticalAlign=top;" parent="1" vertex="1">
          <mxGeometry x="-596" y="686" width="164" height="10" as="geometry" />
        </mxCell>
        <mxCell id="NRgmB2DWNI1tFP4q7ESX-52" value="" style="line;strokeWidth=2;html=1;shadow=0;glass=0;labelBackgroundColor=none;sketch=0;fontFamily=Comic Sans MS;fontSize=12;fontColor=#001701;fillColor=#719651;gradientColor=none;gradientDirection=north;verticalAlign=top;" parent="1" vertex="1">
          <mxGeometry x="-330" y="682" width="66" height="10" as="geometry" />
        </mxCell>
        <mxCell id="NRgmB2DWNI1tFP4q7ESX-54" value="" style="line;strokeWidth=2;direction=south;html=1;shadow=0;glass=0;labelBackgroundColor=none;sketch=0;fontFamily=Comic Sans MS;fontSize=12;fontColor=#001701;fillColor=#719651;gradientColor=none;gradientDirection=north;verticalAlign=top;" parent="1" vertex="1">
          <mxGeometry x="-269" y="432" width="10" height="256" as="geometry" />
        </mxCell>
        <mxCell id="NRgmB2DWNI1tFP4q7ESX-17" value="&lt;font style=&quot;font-size: 12px&quot; color=&quot;#e9dddd&quot;&gt;Windows Server&lt;br style=&quot;font-size: 12px&quot;&gt;2016&lt;/font&gt;" style="shape=image;verticalLabelPosition=bottom;labelBackgroundColor=none;verticalAlign=top;aspect=fixed;imageAspect=0;image=data:image/svg+xml,PHN2ZyB4bWxuczpjYz0iaHR0cDovL2NyZWF0aXZlY29tbW9ucy5vcmcvbnMjIiB4bWxuczpkYz0iaHR0cDovL3B1cmwub3JnL2RjL2VsZW1lbnRzLzEuMS8iIHhtbG5zOmlua3NjYXBlPSJodHRwOi8vd3d3Lmlua3NjYXBlLm9yZy9uYW1lc3BhY2VzL2lua3NjYXBlIiB4bWxuczpyZGY9Imh0dHA6Ly93d3cudzMub3JnLzE5OTkvMDIvMjItcmRmLXN5bnRheC1ucyMiIHhtbG5zOnNvZGlwb2RpPSJodHRwOi8vc29kaXBvZGkuc291cmNlZm9yZ2UubmV0L0RURC9zb2RpcG9kaS0wLmR0ZCIgeG1sbnM6c3ZnPSJodHRwOi8vd3d3LnczLm9yZy8yMDAwL3N2ZyIgeG1sbnM9Imh0dHA6Ly93d3cudzMub3JnLzIwMDAvc3ZnIiB4bWxuczp4bGluaz0iaHR0cDovL3d3dy53My5vcmcvMTk5OS94bGluayIgdmVyc2lvbj0iMS4xIiBpZD0ic3ZnMjY1MTUzIiBpbmtzY2FwZTp2ZXJzaW9uPSIwLjkyLjMgKDI0MDU1NDYsIDIwMTgtMDMtMTEpIiBzb2RpcG9kaTpkb2NuYW1lPSJ3aW5kb3dzX3NlcnZlci5zdmciIHg9IjBweCIgeT0iMHB4IiB2aWV3Qm94PSIwIDAgNDguNDEgNjkuNzYiIHN0eWxlPSJlbmFibGUtYmFja2dyb3VuZDpuZXcgMCAwIDQ4LjQxIDY5Ljc2OyIgeG1sOnNwYWNlPSJwcmVzZXJ2ZSI+JiN4YTs8c29kaXBvZGk6bmFtZWR2aWV3IGJvcmRlcmNvbG9yPSIjNjY2NjY2IiBib3JkZXJvcGFjaXR5PSIxIiBmaXQtbWFyZ2luLWJvdHRvbT0iMCIgZml0LW1hcmdpbi1sZWZ0PSIwIiBmaXQtbWFyZ2luLXJpZ2h0PSIwIiBmaXQtbWFyZ2luLXRvcD0iMCIgZ3JpZHRvbGVyYW5jZT0iMTAiIGd1aWRldG9sZXJhbmNlPSIxMCIgaWQ9Im5hbWVkdmlldzI2NTE1NSIgaW5rc2NhcGU6Y3VycmVudC1sYXllcj0ic3ZnMjY1MTUzIiBpbmtzY2FwZTpjeD0iMzIuMTkwODk3IiBpbmtzY2FwZTpjeT0iNDYuNTA4MzQ2IiBpbmtzY2FwZTpwYWdlb3BhY2l0eT0iMCIgaW5rc2NhcGU6cGFnZXNoYWRvdz0iMiIgaW5rc2NhcGU6d2luZG93LWhlaWdodD0iMTAxNyIgaW5rc2NhcGU6d2luZG93LW1heGltaXplZD0iMSIgaW5rc2NhcGU6d2luZG93LXdpZHRoPSIxOTIwIiBpbmtzY2FwZTp3aW5kb3cteD0iLTgiIGlua3NjYXBlOndpbmRvdy15PSItOCIgaW5rc2NhcGU6em9vbT0iOS4xMjUzNjg5IiBvYmplY3R0b2xlcmFuY2U9IjEwIiBwYWdlY29sb3I9IiNmZmZmZmYiIHNob3dncmlkPSJmYWxzZSI+JiN4YTsJPC9zb2RpcG9kaTpuYW1lZHZpZXc+JiN4YTs8ZyBpZD0iZzI2NTE1MSIgdHJhbnNmb3JtPSJ0cmFuc2xhdGUoLTAuNzUsLTAuNzUwMDM4NzgpIj4mI3hhOwk8dGl0bGUgaWQ9InRpdGxlMjY1MDYyIj5QYWdlLTE8L3RpdGxlPiYjeGE7CTxnIGlkPSJncm91cDEwOTI5LTEiIHRyYW5zZm9ybT0idHJhbnNsYXRlKDEuNSwtMS41KSI+JiN4YTsJCTx0aXRsZSBpZD0idGl0bGUyNjUwNjQiPldpbmRvd3MgU2VydmVyPC90aXRsZT4mI3hhOwkJPGcgaWQ9Imdyb3VwMTA5MzAtMiI+JiN4YTsJCQk8dGl0bGUgaWQ9InRpdGxlMjY1MDY2Ij5HZW5lcmljIFNlcnZpY2UuMTQ5Mjk8L3RpdGxlPiYjeGE7CQkJPGcgaWQ9Imdyb3VwMTA5MzEtMyIgdHJhbnNmb3JtPSJ0cmFuc2xhdGUoMCwtMC4wMDczOTg3NikiPiYjeGE7CQkJCTx0aXRsZSBpZD0idGl0bGUyNjUwNjgiPmcxNTQzMy4xMTcyMTwvdGl0bGU+JiN4YTsJCQkJPGcgaWQ9InNoYXBlMTA5MzItNCI+JiN4YTsJCQkJCTx0aXRsZSBpZD0idGl0bGUyNjUwNzAiPnJlY3QxNTQwNTwvdGl0bGU+JiN4YTsJCQkJCSYjeGE7CQkJCQkJPHJlY3QgaWQ9InJlY3QyNjUwNzIiIHk9IjMuMDEiIHN0eWxlPSJmaWxsOiNGRkZGRkY7c3Ryb2tlOiM1NTZBOEE7c3Ryb2tlLXdpZHRoOjEuNTtzdHJva2UtbWl0ZXJsaW1pdDozOyIgd2lkdGg9IjM5Ljc1IiBoZWlnaHQ9IjY4LjI1Ii8+JiN4YTsJCQkJPC9nPiYjeGE7CQkJCTxnIGlkPSJncm91cDEwOTMzLTYiIHRyYW5zZm9ybT0idHJhbnNsYXRlKDEuNSwtMC43NSkiPiYjeGE7CQkJCQk8dGl0bGUgaWQ9InRpdGxlMjY1MDc1Ij5nMTU0MjU8L3RpdGxlPiYjeGE7CQkJCQk8ZyBpZD0ic2hhcGUxMDkzNC03IiB0cmFuc2Zvcm09InRyYW5zbGF0ZSgxOCkiPiYjeGE7CQkJCQkJPHRpdGxlIGlkPSJ0aXRsZTI2NTA3NyI+cmVjdDE1NDA3PC90aXRsZT4mI3hhOwkJCQkJCTxyZWN0IGlkPSJyZWN0MjY1MDc5IiB5PSI0LjUxIiBzdHlsZT0iZmlsbDojRTVFNUU1OyIgd2lkdGg9IjE5LjUiIGhlaWdodD0iNjYuNzUiLz4mI3hhOwkJCQkJPC9nPiYjeGE7CQkJCQk8ZyBpZD0ic2hhcGUxMDkzNS05IiB0cmFuc2Zvcm09InRyYW5zbGF0ZSgwLC00OCkiPiYjeGE7CQkJCQkJPHRpdGxlIGlkPSJ0aXRsZTI2NTA4MiI+cmVjdDE1NDA5PC90aXRsZT4mI3hhOwkJCQkJCTxyZWN0IGlkPSJyZWN0MjY1MDg0IiB5PSI2OS4wMSIgc3R5bGU9ImZpbGw6IzJCQzdGNDsiIHdpZHRoPSIxOCIgaGVpZ2h0PSIyLjI1Ii8+JiN4YTsJCQkJCTwvZz4mI3hhOwkJCQkJPGcgaWQ9InNoYXBlMTA5MzYtMTEiIHRyYW5zZm9ybT0idHJhbnNsYXRlKDAsLTU4LjUpIj4mI3hhOwkJCQkJCTx0aXRsZSBpZD0idGl0bGUyNjUwODciPnBvbHlnb24xNTQxMTwvdGl0bGU+JiN4YTsJCQkJCQk8cmVjdCBpZD0icmVjdDI2NTA4OSIgeT0iNjkuMDEiIHN0eWxlPSJmaWxsOm5vbmU7IiB3aWR0aD0iMjciIGhlaWdodD0iMi4yNSIvPiYjeGE7CQkJCQk8L2c+JiN4YTsJCQkJCTxnIGlkPSJzaGFwZTEwOTM3LTEzIiB0cmFuc2Zvcm09InRyYW5zbGF0ZSgwLC01OC41KSI+JiN4YTsJCQkJCQk8dGl0bGUgaWQ9InRpdGxlMjY1MDkyIj5wb2x5bGluZTE1NDEzPC90aXRsZT4mI3hhOwkJCQkJCTxyZWN0IGlkPSJyZWN0MjY1MDk0IiB5PSI2OS4wMSIgc3R5bGU9ImZpbGw6bm9uZTsiIHdpZHRoPSIyNyIgaGVpZ2h0PSIyLjI1Ii8+JiN4YTsJCQkJCTwvZz4mI3hhOwkJCQkJPGcgaWQ9InNoYXBlMTA5MzgtMTUiIHRyYW5zZm9ybT0idHJhbnNsYXRlKDAsLTUzLjI1KSI+JiN4YTsJCQkJCQk8dGl0bGUgaWQ9InRpdGxlMjY1MDk3Ij5yZWN0MTU0MTU8L3RpdGxlPiYjeGE7CQkJCQkJPHJlY3QgaWQ9InJlY3QyNjUwOTkiIHk9IjY5LjAxIiBzdHlsZT0iZmlsbDojMkJDN0Y0OyIgd2lkdGg9IjE4IiBoZWlnaHQ9IjIuMjUiLz4mI3hhOwkJCQkJPC9nPiYjeGE7CQkJCQk8ZyBpZD0ic2hhcGUxMDkzOS0xNyIgdHJhbnNmb3JtPSJ0cmFuc2xhdGUoMCwtNTguNSkiPiYjeGE7CQkJCQkJPHRpdGxlIGlkPSJ0aXRsZTI2NTEwMiI+cmVjdDE1NDE3PC90aXRsZT4mI3hhOwkJCQkJCTxyZWN0IGlkPSJyZWN0MjY1MTA0IiB5PSI2OS4wMSIgc3R5bGU9ImZpbGw6IzJCQzdGNDsiIHdpZHRoPSIxOCIgaGVpZ2h0PSIyLjI1Ii8+JiN4YTsJCQkJCTwvZz4mI3hhOwkJCQkJPGcgaWQ9InNoYXBlMTA5NDAtMTkiIHRyYW5zZm9ybT0idHJhbnNsYXRlKDE4LC00OCkiPiYjeGE7CQkJCQkJPHRpdGxlIGlkPSJ0aXRsZTI2NTEwNyI+cmVjdDE1NDE5PC90aXRsZT4mI3hhOwkJCQkJCTxyZWN0IGlkPSJyZWN0MjY1MTA5IiB5PSI2OS4wMSIgc3R5bGU9ImZpbGw6IzU1NkE4QTsiIHdpZHRoPSIxOS41IiBoZWlnaHQ9IjIuMjUiLz4mI3hhOwkJCQkJPC9nPiYjeGE7CQkJCQk8ZyBpZD0ic2hhcGUxMDk0MS0yMSIgdHJhbnNmb3JtPSJ0cmFuc2xhdGUoMTgsLTUzLjI1KSI+JiN4YTsJCQkJCQk8dGl0bGUgaWQ9InRpdGxlMjY1MTEyIj5yZWN0MTU0MjE8L3RpdGxlPiYjeGE7CQkJCQkJPHJlY3QgaWQ9InJlY3QyNjUxMTQiIHk9IjY5LjAxIiBzdHlsZT0iZmlsbDojNTU2QThBOyIgd2lkdGg9IjE5LjUiIGhlaWdodD0iMi4yNSIvPiYjeGE7CQkJCQk8L2c+JiN4YTsJCQkJCTxnIGlkPSJzaGFwZTEwOTQyLTIzIiB0cmFuc2Zvcm09InRyYW5zbGF0ZSgxOCwtNTguNSkiPiYjeGE7CQkJCQkJPHRpdGxlIGlkPSJ0aXRsZTI2NTExNyI+cmVjdDE1NDIzPC90aXRsZT4mI3hhOwkJCQkJCTxyZWN0IGlkPSJyZWN0MjY1MTE5IiB5PSI2OS4wMSIgc3R5bGU9ImZpbGw6IzU1NkE4QTsiIHdpZHRoPSIxOS41IiBoZWlnaHQ9IjIuMjUiLz4mI3hhOwkJCQkJPC9nPiYjeGE7CQkJCTwvZz4mI3hhOwkJCQk8ZyBpZD0ic2hhcGUxMDk0My0yNSIgdHJhbnNmb3JtPSJ0cmFuc2xhdGUoMC43NSwtNTkuMjUpIj4mI3hhOwkJCQkJPHRpdGxlIGlkPSJ0aXRsZTI2NTEyMyI+cmVjdDE1NDI3PC90aXRsZT4mI3hhOwkJCQkJPHJlY3QgaWQ9InJlY3QyNjUxMjUiIHk9IjY5LjAxIiBzdHlsZT0iZmlsbDojNTU2QThBOyIgd2lkdGg9IjIuMjUiIGhlaWdodD0iMi4yNSIvPiYjeGE7CQkJCTwvZz4mI3hhOwkJCQk8ZyBpZD0ic2hhcGUxMDk0NC0yNyIgdHJhbnNmb3JtPSJ0cmFuc2xhdGUoMC43NSwtNTQpIj4mI3hhOwkJCQkJPHRpdGxlIGlkPSJ0aXRsZTI2NTEyOCI+cmVjdDE1NDI5PC90aXRsZT4mI3hhOwkJCQkJPHJlY3QgaWQ9InJlY3QyNjUxMzAiIHk9IjY5LjAxIiBzdHlsZT0iZmlsbDojNTU2QThBOyIgd2lkdGg9IjIuMjUiIGhlaWdodD0iMi4yNSIvPiYjeGE7CQkJCTwvZz4mI3hhOwkJCQk8ZyBpZD0ic2hhcGUxMDk0NS0yOSIgdHJhbnNmb3JtPSJ0cmFuc2xhdGUoMC43NSwtNDguNzUpIj4mI3hhOwkJCQkJPHRpdGxlIGlkPSJ0aXRsZTI2NTEzMyI+cmVjdDE1NDMxPC90aXRsZT4mI3hhOwkJCQkJPHJlY3QgaWQ9InJlY3QyNjUxMzUiIHk9IjY5LjAxIiBzdHlsZT0iZmlsbDojNTU2QThBOyIgd2lkdGg9IjIuMjUiIGhlaWdodD0iMi4yNSIvPiYjeGE7CQkJCTwvZz4mI3hhOwkJCTwvZz4mI3hhOwkJCTxnIGlkPSJzaGFwZTEwOTQ2LTMxIiB0cmFuc2Zvcm09InRyYW5zbGF0ZSgxMy42OTgzKSI+JiN4YTsJCQkJPHRpdGxlIGlkPSJ0aXRsZTI2NTEzOSI+cG9seWdvbjE1NDM1LjExNzM3PC90aXRsZT4mI3hhOwkJCQkmI3hhOwkJCQkJPHBhdGggaWQ9InBhdGgyNjUxNDEiIGlua3NjYXBlOmNvbm5lY3Rvci1jdXJ2YXR1cmU9IjAiIHN0eWxlPSJmaWxsOiNGRkZGRkY7c3Ryb2tlOiMyMDc1Qjg7c3Ryb2tlLXdpZHRoOjEuNTtzdHJva2UtbWl0ZXJsaW1pdDozOyIgZD0iICAgICAgTTguMjcsNzEuMjZMMCw1Ny4wMmw4LjI3LTE0LjIzaDE2LjU1bDguMjcsMTQuMjNsLTguMjcsMTQuMjRIOC4yN3oiLz4mI3hhOwkJCTwvZz4mI3hhOwkJPC9nPiYjeGE7CQk8ZyBpZD0ic2hhcGUxMDk0Ny0zMyIgdHJhbnNmb3JtPSJ0cmFuc2xhdGUoMjAuMDM0NCwtNS4yNTgxMSkiPiYjeGE7CQkJPHRpdGxlIGlkPSJ0aXRsZTI2NTE0NSI+TWljcm9zb2Z0ICMyLjIyODwvdGl0bGU+JiN4YTsJCQk8cGF0aCBpZD0icGF0aDI2NTE0NyIgaW5rc2NhcGU6Y29ubmVjdG9yLWN1cnZhdHVyZT0iMCIgc3R5bGU9ImZpbGw6IzAwNzhENzsiIGQ9Ik0wLDYxLjN2LTYuMWw3LjQ3LTEuMDR2Ny4xNEgweiBNMCw2OC42NXYtNi4xICAgICBoNy40N3Y3LjE0TDAsNjguNjV6IE04LjcxLDUzLjk4bDkuOTYtMS4zOXY4LjcxSDguNzFWNTMuOTh6IE04LjcxLDY5Ljg2di03LjMxaDkuOTZ2OC43MUw4LjcxLDY5Ljg2eiIvPiYjeGE7CQk8L2c+JiN4YTsJPC9nPiYjeGE7PC9nPiYjeGE7PC9zdmc+;fontFamily=Comic Sans MS;fontColor=#FFFFFF;html=1;fontSize=12;" parent="1" vertex="1">
          <mxGeometry x="-525" y="323.5" width="61.71" height="90" as="geometry" />
        </mxCell>
        <mxCell id="NRgmB2DWNI1tFP4q7ESX-56" value="&lt;font style=&quot;font-size: 57px&quot;&gt;The Contoso Project&lt;/font&gt;" style="text;html=1;strokeColor=none;fillColor=none;align=center;verticalAlign=middle;whiteSpace=wrap;rounded=0;shadow=0;glass=0;dashed=1;labelBackgroundColor=none;sketch=0;fontFamily=Comic Sans MS;fontSize=12;fontColor=#001701;" parent="1" vertex="1">
          <mxGeometry x="358.5" y="-50" width="690" height="62" as="geometry" />
        </mxCell>
        <mxCell id="wsWsAE7AVVeRKNTgJQY_-2" value="&lt;font face=&quot;Comic Sans MS&quot; style=&quot;font-size: 14px&quot;&gt;Windows Server 2016&lt;br&gt;Virtual Machine&lt;/font&gt;" style="rounded=1;whiteSpace=wrap;html=1;shadow=1;strokeWidth=2;fontSize=12;align=center;verticalAlign=top;fillColor=#647687;strokeColor=#314354;fontColor=#ffffff;gradientDirection=north;" parent="1" vertex="1">
          <mxGeometry x="1030" y="170" width="217" height="311" as="geometry" />
        </mxCell>
        <mxCell id="23046e2b9bb16c14-2" value="" style="rounded=1;whiteSpace=wrap;html=1;shadow=0;strokeWidth=2;fillColor=none;fontSize=12;fontColor=#000000;align=center;strokeColor=#FFFFFF;arcSize=10;" parent="1" vertex="1">
          <mxGeometry x="1058.5" y="206" width="160" height="230" as="geometry" />
        </mxCell>
        <mxCell id="wsWsAE7AVVeRKNTgJQY_-3" value="Replicated Active&lt;br&gt;Directory&lt;br&gt;Domain Services" style="aspect=fixed;perimeter=ellipsePerimeter;html=1;align=center;shadow=0;dashed=0;spacingTop=3;image;image=img/lib/active_directory/active_directory.svg;labelBackgroundColor=none;fontFamily=Comic Sans MS;fontColor=#000000;fillColor=#99CCFF;verticalAlign=top;horizontal=1;labelPosition=center;verticalLabelPosition=top;" parent="1" vertex="1">
          <mxGeometry x="1096" y="314.5" width="85.89" height="73" as="geometry" />
        </mxCell>
        <mxCell id="wsWsAE7AVVeRKNTgJQY_-5" value="" style="line;strokeWidth=2;direction=south;html=1;rounded=1;shadow=0;glass=0;labelBackgroundColor=none;sketch=0;fontFamily=Comic Sans MS;fontSize=12;fontColor=#001701;fillColor=none;gradientColor=none;gradientDirection=north;verticalAlign=top;" parent="1" vertex="1">
          <mxGeometry x="808" y="370" width="10" height="30" as="geometry" />
        </mxCell>
        <mxCell id="wsWsAE7AVVeRKNTgJQY_-8" value="VPN Gateway" style="points=[];aspect=fixed;html=1;align=center;shadow=0;dashed=0;image;image=img/lib/allied_telesis/security/Router_VPN.svg;rounded=1;glass=0;labelBackgroundColor=none;sketch=0;fontFamily=Comic Sans MS;fontSize=12;fontColor=#001701;strokeColor=#000000;strokeWidth=2;fillColor=none;gradientColor=none;gradientDirection=north;" parent="1" vertex="1">
          <mxGeometry x="-230" y="404.4" width="92.44" height="65.6" as="geometry" />
        </mxCell>
        <mxCell id="wsWsAE7AVVeRKNTgJQY_-10" value="" style="endArrow=classic;startArrow=classic;html=1;dashed=1;fontFamily=Comic Sans MS;fontSize=12;fontColor=#001701;endSize=6;strokeColor=#FFFFFF;strokeWidth=3;" parent="1" source="wsWsAE7AVVeRKNTgJQY_-8" edge="1">
          <mxGeometry width="50" height="50" relative="1" as="geometry">
            <mxPoint x="-137.56" y="487.2" as="sourcePoint" />
            <mxPoint x="30" y="437" as="targetPoint" />
          </mxGeometry>
        </mxCell>
        <mxCell id="wsWsAE7AVVeRKNTgJQY_-11" value="&lt;font style=&quot;font-size: 14px&quot;&gt;IPSec&lt;br&gt;IKE Tunnel&lt;br&gt;&lt;/font&gt;" style="edgeLabel;html=1;align=center;verticalAlign=top;resizable=0;points=[];fontSize=12;fontFamily=Comic Sans MS;fontColor=#001701;spacingBottom=-8;labelBackgroundColor=none;labelBorderColor=none;" parent="wsWsAE7AVVeRKNTgJQY_-10" vertex="1" connectable="0">
          <mxGeometry x="-0.2499" y="-7" relative="1" as="geometry">
            <mxPoint x="1" as="offset" />
          </mxGeometry>
        </mxCell>
        <mxCell id="wsWsAE7AVVeRKNTgJQY_-15" value="IIS Servers" style="rounded=1;whiteSpace=wrap;html=1;shadow=1;strokeWidth=2;fontSize=12;align=center;verticalAlign=top;fillColor=#647687;strokeColor=#314354;fontColor=#ffffff;gradientDirection=north;" parent="1" vertex="1">
          <mxGeometry x="1310" y="170" width="420" height="440" as="geometry" />
        </mxCell>
        <mxCell id="wsWsAE7AVVeRKNTgJQY_-16" value="" style="shape=image;verticalLabelPosition=bottom;labelBackgroundColor=#ffffff;verticalAlign=top;aspect=fixed;imageAspect=0;image=data:image/svg+xml,PHN2ZyB4bWxuczpjYz0iaHR0cDovL2NyZWF0aXZlY29tbW9ucy5vcmcvbnMjIiB4bWxuczpkYz0iaHR0cDovL3B1cmwub3JnL2RjL2VsZW1lbnRzLzEuMS8iIHhtbG5zOmlua3NjYXBlPSJodHRwOi8vd3d3Lmlua3NjYXBlLm9yZy9uYW1lc3BhY2VzL2lua3NjYXBlIiB4bWxuczpyZGY9Imh0dHA6Ly93d3cudzMub3JnLzE5OTkvMDIvMjItcmRmLXN5bnRheC1ucyMiIHhtbG5zOnNvZGlwb2RpPSJodHRwOi8vc29kaXBvZGkuc291cmNlZm9yZ2UubmV0L0RURC9zb2RpcG9kaS0wLmR0ZCIgeG1sbnM6c3ZnPSJodHRwOi8vd3d3LnczLm9yZy8yMDAwL3N2ZyIgeG1sbnM9Imh0dHA6Ly93d3cudzMub3JnLzIwMDAvc3ZnIiB4bWxuczp4bGluaz0iaHR0cDovL3d3dy53My5vcmcvMTk5OS94bGluayIgdmVyc2lvbj0iMS4xIiBpZD0ic3ZnMjY0OTQzIiBpbmtzY2FwZTp2ZXJzaW9uPSIwLjkyLjMgKDI0MDU1NDYsIDIwMTgtMDMtMTEpIiBzb2RpcG9kaTpkb2NuYW1lPSJ3ZWJfc2VydmljZV9paXMuc3ZnIiB4PSIwcHgiIHk9IjBweCIgdmlld0JveD0iMCAwIDQ4LjQxIDY5Ljc2IiBzdHlsZT0iZW5hYmxlLWJhY2tncm91bmQ6bmV3IDAgMCA0OC40MSA2OS43NjsiIHhtbDpzcGFjZT0icHJlc2VydmUiPiYjeGE7PHNvZGlwb2RpOm5hbWVkdmlldyBib3JkZXJjb2xvcj0iIzY2NjY2NiIgYm9yZGVyb3BhY2l0eT0iMSIgZml0LW1hcmdpbi1ib3R0b209IjAiIGZpdC1tYXJnaW4tbGVmdD0iMCIgZml0LW1hcmdpbi1yaWdodD0iMCIgZml0LW1hcmdpbi10b3A9IjAiIGdyaWR0b2xlcmFuY2U9IjEwIiBndWlkZXRvbGVyYW5jZT0iMTAiIGlkPSJuYW1lZHZpZXcyNjQ5NDUiIGlua3NjYXBlOmN1cnJlbnQtbGF5ZXI9InN2ZzI2NDk0MyIgaW5rc2NhcGU6Y3g9IjE0LjM4MzM5OCIgaW5rc2NhcGU6Y3k9IjQ2LjUwODM0NiIgaW5rc2NhcGU6cGFnZW9wYWNpdHk9IjAiIGlua3NjYXBlOnBhZ2VzaGFkb3c9IjIiIGlua3NjYXBlOndpbmRvdy1oZWlnaHQ9IjEwMTciIGlua3NjYXBlOndpbmRvdy1tYXhpbWl6ZWQ9IjEiIGlua3NjYXBlOndpbmRvdy13aWR0aD0iMTkyMCIgaW5rc2NhcGU6d2luZG93LXg9Ii04IiBpbmtzY2FwZTp3aW5kb3cteT0iLTgiIGlua3NjYXBlOnpvb209IjkuMTI1MzY4OSIgb2JqZWN0dG9sZXJhbmNlPSIxMCIgcGFnZWNvbG9yPSIjZmZmZmZmIiBzaG93Z3JpZD0iZmFsc2UiPiYjeGE7CTwvc29kaXBvZGk6bmFtZWR2aWV3PiYjeGE7PGcgaWQ9ImcyNjQ5NDEiIHRyYW5zZm9ybT0idHJhbnNsYXRlKC0wLjc1LC0wLjc1MDAzODc4KSI+JiN4YTsJPHRpdGxlIGlkPSJ0aXRsZTI2NDgxNSI+UGFnZS0xPC90aXRsZT4mI3hhOwk8ZyBpZD0iZ3JvdXAxMTE3MC0xIiB0cmFuc2Zvcm09InRyYW5zbGF0ZSgxLjUsLTEuNSkiPiYjeGE7CQk8dGl0bGUgaWQ9InRpdGxlMjY0ODE3Ij5XZWIgU2VydmljZS9JSVM8L3RpdGxlPiYjeGE7CQk8ZyBpZD0iZ3JvdXAxMTE3MS0yIiB0cmFuc2Zvcm09InRyYW5zbGF0ZSgwLC0wLjAwNzM5ODc2KSI+JiN4YTsJCQk8dGl0bGUgaWQ9InRpdGxlMjY0ODE5Ij5nMTU0MzMuMTE3MjE8L3RpdGxlPiYjeGE7CQkJPGcgaWQ9InNoYXBlMTExNzItMyI+JiN4YTsJCQkJPHRpdGxlIGlkPSJ0aXRsZTI2NDgyMSI+cmVjdDE1NDA1PC90aXRsZT4mI3hhOwkJCQkmI3hhOwkJCQkJPHJlY3QgaWQ9InJlY3QyNjQ4MjMiIHk9IjMuMDEiIHN0eWxlPSJmaWxsOiNGRkZGRkY7c3Ryb2tlOiM1NTZBOEE7c3Ryb2tlLXdpZHRoOjEuNTtzdHJva2UtbWl0ZXJsaW1pdDozOyIgd2lkdGg9IjM5Ljc1IiBoZWlnaHQ9IjY4LjI1Ii8+JiN4YTsJCQk8L2c+JiN4YTsJCQk8ZyBpZD0iZ3JvdXAxMTE3My01IiB0cmFuc2Zvcm09InRyYW5zbGF0ZSgxLjUsLTAuNzUpIj4mI3hhOwkJCQk8dGl0bGUgaWQ9InRpdGxlMjY0ODI2Ij5nMTU0MjU8L3RpdGxlPiYjeGE7CQkJCTxnIGlkPSJzaGFwZTExMTc0LTYiIHRyYW5zZm9ybT0idHJhbnNsYXRlKDE4KSI+JiN4YTsJCQkJCTx0aXRsZSBpZD0idGl0bGUyNjQ4MjgiPnJlY3QxNTQwNzwvdGl0bGU+JiN4YTsJCQkJCTxyZWN0IGlkPSJyZWN0MjY0ODMwIiB5PSI0LjUxIiBzdHlsZT0iZmlsbDojRTVFNUU1OyIgd2lkdGg9IjE5LjUiIGhlaWdodD0iNjYuNzUiLz4mI3hhOwkJCQk8L2c+JiN4YTsJCQkJPGcgaWQ9InNoYXBlMTExNzUtOCIgdHJhbnNmb3JtPSJ0cmFuc2xhdGUoMCwtNDgpIj4mI3hhOwkJCQkJPHRpdGxlIGlkPSJ0aXRsZTI2NDgzMyI+cmVjdDE1NDA5PC90aXRsZT4mI3hhOwkJCQkJPHJlY3QgaWQ9InJlY3QyNjQ4MzUiIHk9IjY5LjAxIiBzdHlsZT0iZmlsbDojMkJDN0Y0OyIgd2lkdGg9IjE4IiBoZWlnaHQ9IjIuMjUiLz4mI3hhOwkJCQk8L2c+JiN4YTsJCQkJPGcgaWQ9InNoYXBlMTExNzYtMTAiIHRyYW5zZm9ybT0idHJhbnNsYXRlKDAsLTU4LjUpIj4mI3hhOwkJCQkJPHRpdGxlIGlkPSJ0aXRsZTI2NDgzOCI+cG9seWdvbjE1NDExPC90aXRsZT4mI3hhOwkJCQkJPHJlY3QgaWQ9InJlY3QyNjQ4NDAiIHk9IjY5LjAxIiBzdHlsZT0iZmlsbDpub25lOyIgd2lkdGg9IjI3IiBoZWlnaHQ9IjIuMjUiLz4mI3hhOwkJCQk8L2c+JiN4YTsJCQkJPGcgaWQ9InNoYXBlMTExNzctMTIiIHRyYW5zZm9ybT0idHJhbnNsYXRlKDAsLTU4LjUpIj4mI3hhOwkJCQkJPHRpdGxlIGlkPSJ0aXRsZTI2NDg0MyI+cG9seWxpbmUxNTQxMzwvdGl0bGU+JiN4YTsJCQkJCTxyZWN0IGlkPSJyZWN0MjY0ODQ1IiB5PSI2OS4wMSIgc3R5bGU9ImZpbGw6bm9uZTsiIHdpZHRoPSIyNyIgaGVpZ2h0PSIyLjI1Ii8+JiN4YTsJCQkJPC9nPiYjeGE7CQkJCTxnIGlkPSJzaGFwZTExMTc4LTE0IiB0cmFuc2Zvcm09InRyYW5zbGF0ZSgwLC01My4yNSkiPiYjeGE7CQkJCQk8dGl0bGUgaWQ9InRpdGxlMjY0ODQ4Ij5yZWN0MTU0MTU8L3RpdGxlPiYjeGE7CQkJCQk8cmVjdCBpZD0icmVjdDI2NDg1MCIgeT0iNjkuMDEiIHN0eWxlPSJmaWxsOiMyQkM3RjQ7IiB3aWR0aD0iMTgiIGhlaWdodD0iMi4yNSIvPiYjeGE7CQkJCTwvZz4mI3hhOwkJCQk8ZyBpZD0ic2hhcGUxMTE3OS0xNiIgdHJhbnNmb3JtPSJ0cmFuc2xhdGUoMCwtNTguNSkiPiYjeGE7CQkJCQk8dGl0bGUgaWQ9InRpdGxlMjY0ODUzIj5yZWN0MTU0MTc8L3RpdGxlPiYjeGE7CQkJCQk8cmVjdCBpZD0icmVjdDI2NDg1NSIgeT0iNjkuMDEiIHN0eWxlPSJmaWxsOiMyQkM3RjQ7IiB3aWR0aD0iMTgiIGhlaWdodD0iMi4yNSIvPiYjeGE7CQkJCTwvZz4mI3hhOwkJCQk8ZyBpZD0ic2hhcGUxMTE4MC0xOCIgdHJhbnNmb3JtPSJ0cmFuc2xhdGUoMTgsLTQ4KSI+JiN4YTsJCQkJCTx0aXRsZSBpZD0idGl0bGUyNjQ4NTgiPnJlY3QxNTQxOTwvdGl0bGU+JiN4YTsJCQkJCTxyZWN0IGlkPSJyZWN0MjY0ODYwIiB5PSI2OS4wMSIgc3R5bGU9ImZpbGw6IzU1NkE4QTsiIHdpZHRoPSIxOS41IiBoZWlnaHQ9IjIuMjUiLz4mI3hhOwkJCQk8L2c+JiN4YTsJCQkJPGcgaWQ9InNoYXBlMTExODEtMjAiIHRyYW5zZm9ybT0idHJhbnNsYXRlKDE4LC01My4yNSkiPiYjeGE7CQkJCQk8dGl0bGUgaWQ9InRpdGxlMjY0ODYzIj5yZWN0MTU0MjE8L3RpdGxlPiYjeGE7CQkJCQk8cmVjdCBpZD0icmVjdDI2NDg2NSIgeT0iNjkuMDEiIHN0eWxlPSJmaWxsOiM1NTZBOEE7IiB3aWR0aD0iMTkuNSIgaGVpZ2h0PSIyLjI1Ii8+JiN4YTsJCQkJPC9nPiYjeGE7CQkJCTxnIGlkPSJzaGFwZTExMTgyLTIyIiB0cmFuc2Zvcm09InRyYW5zbGF0ZSgxOCwtNTguNSkiPiYjeGE7CQkJCQk8dGl0bGUgaWQ9InRpdGxlMjY0ODY4Ij5yZWN0MTU0MjM8L3RpdGxlPiYjeGE7CQkJCQk8cmVjdCBpZD0icmVjdDI2NDg3MCIgeT0iNjkuMDEiIHN0eWxlPSJmaWxsOiM1NTZBOEE7IiB3aWR0aD0iMTkuNSIgaGVpZ2h0PSIyLjI1Ii8+JiN4YTsJCQkJPC9nPiYjeGE7CQkJPC9nPiYjeGE7CQkJPGcgaWQ9InNoYXBlMTExODMtMjQiIHRyYW5zZm9ybT0idHJhbnNsYXRlKDAuNzUsLTU5LjI1KSI+JiN4YTsJCQkJPHRpdGxlIGlkPSJ0aXRsZTI2NDg3NCI+cmVjdDE1NDI3PC90aXRsZT4mI3hhOwkJCQk8cmVjdCBpZD0icmVjdDI2NDg3NiIgeT0iNjkuMDEiIHN0eWxlPSJmaWxsOiM1NTZBOEE7IiB3aWR0aD0iMi4yNSIgaGVpZ2h0PSIyLjI1Ii8+JiN4YTsJCQk8L2c+JiN4YTsJCQk8ZyBpZD0ic2hhcGUxMTE4NC0yNiIgdHJhbnNmb3JtPSJ0cmFuc2xhdGUoMC43NSwtNTQpIj4mI3hhOwkJCQk8dGl0bGUgaWQ9InRpdGxlMjY0ODc5Ij5yZWN0MTU0Mjk8L3RpdGxlPiYjeGE7CQkJCTxyZWN0IGlkPSJyZWN0MjY0ODgxIiB5PSI2OS4wMSIgc3R5bGU9ImZpbGw6IzU1NkE4QTsiIHdpZHRoPSIyLjI1IiBoZWlnaHQ9IjIuMjUiLz4mI3hhOwkJCTwvZz4mI3hhOwkJCTxnIGlkPSJzaGFwZTExMTg1LTI4IiB0cmFuc2Zvcm09InRyYW5zbGF0ZSgwLjc1LC00OC43NSkiPiYjeGE7CQkJCTx0aXRsZSBpZD0idGl0bGUyNjQ4ODQiPnJlY3QxNTQzMTwvdGl0bGU+JiN4YTsJCQkJPHJlY3QgaWQ9InJlY3QyNjQ4ODYiIHk9IjY5LjAxIiBzdHlsZT0iZmlsbDojNTU2QThBOyIgd2lkdGg9IjIuMjUiIGhlaWdodD0iMi4yNSIvPiYjeGE7CQkJPC9nPiYjeGE7CQk8L2c+JiN4YTsJCTxnIGlkPSJzaGFwZTExMTg2LTMwIiB0cmFuc2Zvcm09InRyYW5zbGF0ZSgxMy42OTgzKSI+JiN4YTsJCQk8dGl0bGUgaWQ9InRpdGxlMjY0ODkwIj5wb2x5Z29uMTU0MzUuMTE3Mzc8L3RpdGxlPiYjeGE7CQkJJiN4YTsJCQkJPHBhdGggaWQ9InBhdGgyNjQ4OTIiIGlua3NjYXBlOmNvbm5lY3Rvci1jdXJ2YXR1cmU9IjAiIHN0eWxlPSJmaWxsOiNGRkZGRkY7c3Ryb2tlOiNBQUU5RkI7c3Ryb2tlLXdpZHRoOjEuNTtzdHJva2UtbWl0ZXJsaW1pdDozOyIgZD0iICAgICBNOC4yNyw3MS4yNkwwLDU3LjAybDguMjctMTQuMjNoMTYuNTVsOC4yNywxNC4yM2wtOC4yNywxNC4yNEg4LjI3eiIvPiYjeGE7CQk8L2c+JiN4YTsJCTxnIGlkPSJncm91cDExMTg3LTMyIiB0cmFuc2Zvcm09InRyYW5zbGF0ZSgyMC42NTIsLTQuNjAzMTMpIj4mI3hhOwkJCTx0aXRsZSBpZD0idGl0bGUyNjQ4OTUiPkhUVFAuMTQ3MjQ8L3RpdGxlPiYjeGE7CQkJPGcgaWQ9InNoYXBlMTExODgtMzMiIHRyYW5zZm9ybT0idHJhbnNsYXRlKDIuODc4ODksLTIuOTYzMTgpIj4mI3hhOwkJCQk8dGl0bGUgaWQ9InRpdGxlMjY0ODk3Ij5wYXRoOTYxMDwvdGl0bGU+JiN4YTsJCQkJJiN4YTsJCQkJCTxwYXRoIGlkPSJwYXRoMjY0ODk5IiBpbmtzY2FwZTpjb25uZWN0b3ItY3VydmF0dXJlPSIwIiBzdHlsZT0iZmlsbDojRkZGRkZGO3N0cm9rZTojNTU2QThBO3N0cm9rZS13aWR0aDowLjc1O3N0cm9rZS1taXRlcmxpbWl0OjM7IiBkPSIgICAgICBNMTYuMSw2NC41OWMwLDUuMjEtNC4yMiw5LjQzLTkuNDMsOS40M2MtNS4yMSwwLTkuNDMtNC4yMi05LjQzLTkuNDNjMC01LjIxLDQuMjItOS40Myw5LjQzLTkuNDNjMCwwLDAsMCwwLDAgICAgICBDMTEuODgsNTUuMTcsMTYuMDksNTkuMzgsMTYuMSw2NC41OXoiLz4mI3hhOwkJCTwvZz4mI3hhOwkJCTxnIGlkPSJzaGFwZTExMTg5LTM1IiB0cmFuc2Zvcm09InRyYW5zbGF0ZSgwLjExNjM4OCwtMC4yMDA2NzYpIj4mI3hhOwkJCQk8dGl0bGUgaWQ9InRpdGxlMjY0OTAyIj5wYXRoOTYxMjwvdGl0bGU+JiN4YTsJCQkJJiN4YTsJCQkJCTxwYXRoIGlkPSJwYXRoMjY0OTA0IiBpbmtzY2FwZTpjb25uZWN0b3ItY3VydmF0dXJlPSIwIiBzdHlsZT0iZmlsbDojRDRFMkY1O3N0cm9rZTojNTU2QThBO3N0cm9rZS13aWR0aDowLjc1O3N0cm9rZS1taXRlcmxpbWl0OjM7IiBkPSIgICAgICBNMTguODYsNjEuODNjMC4xLDUuMjEtNC4wNCw5LjUxLTkuMjUsOS42MUM0LjQsNzEuNTQsMC4xLDY3LjQsMCw2Mi4yYzAtMC4xMiwwLTAuMjQsMC0wLjM3SDE4Ljg2eiIvPiYjeGE7CQkJPC9nPiYjeGE7CQkJPGcgaWQ9InNoYXBlMTExOTAtMzciIHRyYW5zZm9ybT0idHJhbnNsYXRlKDAuNzE4NDE2LC0yLjgyMTI4KSI+JiN4YTsJCQkJPHRpdGxlIGlkPSJ0aXRsZTI2NDkwNyI+cGF0aDk2MTQ8L3RpdGxlPiYjeGE7CQkJCSYjeGE7CQkJCQk8cGF0aCBpZD0icGF0aDI2NDkwOSIgaW5rc2NhcGU6Y29ubmVjdG9yLWN1cnZhdHVyZT0iMCIgc3R5bGU9ImZpbGw6IzU1NkE4QTtzdHJva2U6IzU1NkE4QTtzdHJva2Utd2lkdGg6MC43NTtzdHJva2UtbWl0ZXJsaW1pdDozOyIgZD0iICAgICAgTTguODMsNTUuNjJjNC44OCwwLDguODMsMy45NSw4LjgzLDguODNzLTMuOTUsOC44My04LjgzLDguODNDMy45NSw3My4yOCwwLDY5LjMzLDAsNjQuNDVDMCw1OS41NywzLjk1LDU1LjYyLDguODMsNTUuNjIgICAgICBDOC44Myw1NS42Miw4LjgzLDU1LjYyLDguODMsNTUuNjJ6IE04LjgzLDU0LjgxYy01LjMyLDAtOS42Myw0LjMxLTkuNjMsOS42M2MwLDUuMzIsNC4zMSw5LjYzLDkuNjMsOS42MyAgICAgIGM1LjMyLDAsOS42My00LjMxLDkuNjMtOS42MkMxOC40Niw1OS4xMywxNC4xNSw1NC44MSw4LjgzLDU0LjgxQzguODMsNTQuODEsOC44Myw1NC44MSw4LjgzLDU0LjgxeiIvPiYjeGE7CQkJPC9nPiYjeGE7CQkJPGcgaWQ9Imdyb3VwMTExOTEtMzkiPiYjeGE7CQkJCTx0aXRsZSBpZD0idGl0bGUyNjQ5MTIiPmc5NjIwPC90aXRsZT4mI3hhOwkJCQk8ZyBpZD0ic2hhcGUxMTE5Mi00MCIgdHJhbnNmb3JtPSJ0cmFuc2xhdGUoNS4xMzMyOSkiPiYjeGE7CQkJCQk8dGl0bGUgaWQ9InRpdGxlMjY0OTE0Ij5wYXRoOTYxNjwvdGl0bGU+JiN4YTsJCQkJCSYjeGE7CQkJCQkJPHBhdGggaWQ9InBhdGgyNjQ5MTYiIGlua3NjYXBlOmNvbm5lY3Rvci1jdXJ2YXR1cmU9IjAiIHN0eWxlPSJmaWxsOiM1NTZBOEE7c3Ryb2tlOiM1NTZBOEE7c3Ryb2tlLXdpZHRoOjAuNzU7c3Ryb2tlLW1pdGVybGltaXQ6MzsiIGQ9IiAgICAgICBNNC4yMSw1Mi45YzEuNjEsMCwzLjQyLDMuNzYsMy40Miw4Ljc4cy0xLjgxLDguNzctMy40Miw4Ljc3Yy0xLjYsMC0zLjQxLTMuNzUtMy40MS04Ljc3UzIuNjEsNTIuOSw0LjIxLDUyLjl6IE00LjIxLDUyLjEgICAgICAgQzEuODksNTIuMSwwLDU2LjM5LDAsNjEuNjhzMS44OSw5LjU4LDQuMjEsOS41OGMyLjMzLDAsNC4yMi00LjI5LDQuMjItOS41OFM2LjU0LDUyLjEsNC4yMSw1Mi4xeiIvPiYjeGE7CQkJCTwvZz4mI3hhOwkJCQk8ZyBpZD0ic2hhcGUxMTE5My00MiIgdHJhbnNmb3JtPSJ0cmFuc2xhdGUoMCwtOS42MzI0NSkiPiYjeGE7CQkJCQk8dGl0bGUgaWQ9InRpdGxlMjY0OTE5Ij5saW5lOTYxODwvdGl0bGU+JiN4YTsJCQkJCSYjeGE7CQkJCQkJPHBhdGggaWQ9InBhdGgyNjQ5MjEiIGlua3NjYXBlOmNvbm5lY3Rvci1jdXJ2YXR1cmU9IjAiIHN0eWxlPSJmaWxsOm5vbmU7c3Ryb2tlOiM1NTZBOEE7c3Ryb2tlLXdpZHRoOjEuNTtzdHJva2UtbWl0ZXJsaW1pdDozOyIgZD0iICAgICAgIE0wLDcxLjI2aDE4Ljc4Ii8+JiN4YTsJCQkJPC9nPiYjeGE7CQkJPC9nPiYjeGE7CQkJPGcgaWQ9InNoYXBlMTExOTQtNDUiIHRyYW5zZm9ybT0idHJhbnNsYXRlKDIuMzI3ODQsLTE0LjQ0ODcpIj4mI3hhOwkJCQk8dGl0bGUgaWQ9InRpdGxlMjY0OTI1Ij5wYXRoOTYyMjwvdGl0bGU+JiN4YTsJCQkJPHBhdGggaWQ9InBhdGgyNjQ5MjciIGlua3NjYXBlOmNvbm5lY3Rvci1jdXJ2YXR1cmU9IjAiIHN0eWxlPSJmaWxsOm5vbmU7IiBkPSJNMCw3MC4xN2MxLjc2LDAuNjksNC4zNSwxLjA5LDcuMjIsMS4wOSAgICAgIHM1LjQ2LTAuNCw3LjIyLTEuMDlIMHoiLz4mI3hhOwkJCQkmI3hhOwkJCQkJPHBhdGggaWQ9InBhdGgyNjQ5MjkiIGlua3NjYXBlOmNvbm5lY3Rvci1jdXJ2YXR1cmU9IjAiIHN0eWxlPSJmaWxsOm5vbmU7c3Ryb2tlOiM1NTZBOEE7c3Ryb2tlLXdpZHRoOjEuNTtzdHJva2UtbWl0ZXJsaW1pdDozOyIgZD0iICAgICAgTTAsNzAuMTdjMS43NiwwLjY5LDQuMzUsMS4wOSw3LjIyLDEuMDlzNS40Ni0wLjQsNy4yMi0xLjA5Ii8+JiN4YTsJCQk8L2c+JiN4YTsJCQk8ZyBpZD0ic2hhcGUxMTE5NS00OCIgdHJhbnNmb3JtPSJ0cmFuc2xhdGUoMi4zMjc4NCwtMy43Mjg1NikiPiYjeGE7CQkJCTx0aXRsZSBpZD0idGl0bGUyNjQ5MzIiPnBhdGg5NjI0PC90aXRsZT4mI3hhOwkJCQk8cGF0aCBpZD0icGF0aDI2NDkzNCIgaW5rc2NhcGU6Y29ubmVjdG9yLWN1cnZhdHVyZT0iMCIgc3R5bGU9ImZpbGw6bm9uZTsiIGQ9Ik0wLDcxLjI2YzEuNzYtMC42OSw0LjM1LTEuMDksNy4yMi0xLjA5ICAgICAgczUuNDYsMC40LDcuMjIsMS4wOUgweiIvPiYjeGE7CQkJCSYjeGE7CQkJCQk8cGF0aCBpZD0icGF0aDI2NDkzNiIgaW5rc2NhcGU6Y29ubmVjdG9yLWN1cnZhdHVyZT0iMCIgc3R5bGU9ImZpbGw6bm9uZTtzdHJva2U6IzU1NkE4QTtzdHJva2Utd2lkdGg6MS41O3N0cm9rZS1taXRlcmxpbWl0OjM7IiBkPSIgICAgICBNMCw3MS4yNmMxLjc2LTAuNjksNC4zNS0xLjA5LDcuMjItMS4wOXM1LjQ2LDAuNCw3LjIyLDEuMDkiLz4mI3hhOwkJCTwvZz4mI3hhOwkJPC9nPiYjeGE7CTwvZz4mI3hhOzwvZz4mI3hhOzwvc3ZnPg==;rounded=1;shadow=0;glass=0;sketch=0;fontFamily=Comic Sans MS;fontSize=12;fontColor=#001701;strokeColor=default;strokeWidth=4;fillColor=default;gradientColor=none;gradientDirection=south;html=1;" parent="1" vertex="1">
          <mxGeometry x="874" y="340" width="48" height="70" as="geometry" />
        </mxCell>
        <mxCell id="wsWsAE7AVVeRKNTgJQY_-17" value="" style="verticalLabelPosition=bottom;html=1;verticalAlign=top;align=center;strokeColor=none;fillColor=#00BEF2;shape=mxgraph.azure.azure_load_balancer;rounded=1;shadow=0;glass=0;labelBackgroundColor=none;sketch=0;fontFamily=Comic Sans MS;fontSize=12;fontColor=#001701;" parent="1" vertex="1">
          <mxGeometry x="1510" y="480.5" width="95" height="65" as="geometry" />
        </mxCell>
        <mxCell id="k2umHwyk2At3dYCqrpzW-5" value="&lt;font face=&quot;Comic Sans MS&quot; style=&quot;font-size: 18px&quot;&gt;Users&lt;/font&gt;" style="fontColor=#0066CC;verticalAlign=top;verticalLabelPosition=bottom;labelPosition=center;align=center;html=1;outlineConnect=0;fillColor=#CCCCCC;strokeColor=#6881B3;gradientColor=none;gradientDirection=north;strokeWidth=2;shape=mxgraph.networks.users;" parent="1" vertex="1">
          <mxGeometry x="-742" y="318.5" width="92" height="100" as="geometry" />
        </mxCell>
        <mxCell id="8ccsj-pmKpA4-8mmTmeE-1" style="edgeStyle=orthogonalEdgeStyle;rounded=0;orthogonalLoop=1;jettySize=auto;html=1;exitX=0.5;exitY=1;exitDx=0;exitDy=0;" edge="1" parent="1" source="wsWsAE7AVVeRKNTgJQY_-15" target="wsWsAE7AVVeRKNTgJQY_-15">
          <mxGeometry relative="1" as="geometry" />
        </mxCell>
        <mxCell id="8ccsj-pmKpA4-8mmTmeE-2" style="edgeStyle=orthogonalEdgeStyle;rounded=0;orthogonalLoop=1;jettySize=auto;html=1;exitX=0.25;exitY=0;exitDx=0;exitDy=0;entryX=0.371;entryY=-0.037;entryDx=0;entryDy=0;entryPerimeter=0;" edge="1" parent="1" source="23046e2b9bb16c14-2" target="23046e2b9bb16c14-2">
          <mxGeometry relative="1" as="geometry" />
        </mxCell>
        <mxCell id="8ccsj-pmKpA4-8mmTmeE-4" style="edgeStyle=orthogonalEdgeStyle;rounded=0;orthogonalLoop=1;jettySize=auto;html=1;exitX=0.5;exitY=1;exitDx=0;exitDy=0;entryX=0;entryY=1;entryDx=0;entryDy=0;" edge="1" parent="1" source="Cm0bcH-Zk1vUnTx-EvQP-19" target="Cm0bcH-Zk1vUnTx-EvQP-19">
          <mxGeometry relative="1" as="geometry" />
        </mxCell>
        <mxCell id="8ccsj-pmKpA4-8mmTmeE-7" value="" style="line;strokeWidth=2;direction=south;html=1;fontFamily=Comic Sans MS;fontSize=22;fillColor=#FFE4DB;gradientColor=#FFBD8A;" vertex="1" parent="1">
          <mxGeometry x="10" y="480" width="360" height="360" as="geometry" />
        </mxCell>
        <mxCell id="8ccsj-pmKpA4-8mmTmeE-8" value="" style="line;strokeWidth=3;direction=south;html=1;perimeter=backbonePerimeter;points=[];outlineConnect=0;fontFamily=Comic Sans MS;fontSize=22;fillColor=#FFE4DB;gradientColor=#FFBD8A;dashed=1;" vertex="1" parent="1">
          <mxGeometry x="185" y="310" width="10" height="100" as="geometry" />
        </mxCell>
        <mxCell id="8ccsj-pmKpA4-8mmTmeE-11" value="" style="line;strokeWidth=2;html=1;dashed=1;fontFamily=Comic Sans MS;fontSize=22;fillColor=#FFE4DB;gradientColor=#FFBD8A;" vertex="1" parent="1">
          <mxGeometry x="90" y="440" width="60" height="10" as="geometry" />
        </mxCell>
        <mxCell id="8ccsj-pmKpA4-8mmTmeE-13" value="&lt;font face=&quot;Comic Sans MS&quot; style=&quot;font-size: 18px&quot;&gt;Users&lt;/font&gt;" style="fontColor=#0066CC;verticalAlign=top;verticalLabelPosition=bottom;labelPosition=center;align=center;html=1;outlineConnect=0;fillColor=#CCCCCC;strokeColor=#6881B3;gradientColor=none;gradientDirection=north;strokeWidth=2;shape=mxgraph.networks.users;" vertex="1" parent="1">
          <mxGeometry x="144" y="840" width="92" height="100" as="geometry" />
        </mxCell>
        <mxCell id="8ccsj-pmKpA4-8mmTmeE-14" value="" style="line;strokeWidth=2;html=1;perimeter=backbonePerimeter;points=[];outlineConnect=0;dashed=1;fontFamily=Comic Sans MS;fontSize=22;fillColor=#FFE4DB;gradientColor=#FFBD8A;" vertex="1" parent="1">
          <mxGeometry x="220" y="441.5" width="414" height="10" as="geometry" />
        </mxCell>
        <mxCell id="8ccsj-pmKpA4-8mmTmeE-16" value="&lt;font style=&quot;font-size: 18px&quot;&gt;Azure Monitor&lt;/font&gt;" style="aspect=fixed;html=1;points=[];align=center;image;fontSize=12;image=img/lib/azure2/management_governance/Monitor.svg;dashed=1;fontFamily=Comic Sans MS;strokeColor=#B1B6BC;strokeWidth=3;fillColor=#FFE4DB;gradientColor=#FFBD8A;" vertex="1" parent="1">
          <mxGeometry x="587" y="630" width="90" height="90" as="geometry" />
        </mxCell>
        <mxCell id="8ccsj-pmKpA4-8mmTmeE-17" value="" style="line;strokeWidth=2;html=1;perimeter=backbonePerimeter;points=[];outlineConnect=0;strokeColor=#F5FFFD;direction=south;dashed=1;" vertex="1" parent="1">
          <mxGeometry x="627" y="450" width="10" height="180" as="geometry" />
        </mxCell>
        <mxCell id="8ccsj-pmKpA4-8mmTmeE-18" value="" style="line;strokeWidth=2;html=1;perimeter=backbonePerimeter;points=[];outlineConnect=0;dashed=1;fontFamily=Comic Sans MS;fontSize=22;fillColor=#FFE4DB;gradientColor=#FFBD8A;" vertex="1" parent="1">
          <mxGeometry x="677" y="670" width="893" height="10" as="geometry" />
        </mxCell>
        <mxCell id="8ccsj-pmKpA4-8mmTmeE-19" value="" style="line;strokeWidth=2;html=1;perimeter=backbonePerimeter;points=[];outlineConnect=0;strokeColor=#F5FFFD;direction=south;dashed=1;" vertex="1" parent="1">
          <mxGeometry x="1130" y="390" width="10" height="280" as="geometry" />
        </mxCell>
      </root>
    </mxGraphModel>
  </diagram>
</mxfile>
